<?xml version="1.0" encoding="UTF-8"?>
<svg id="Layer_2" data-name="Layer 2" xmlns="http://www.w3.org/2000/svg" viewBox="0 0 1206.05 132.54">
  <defs>
    <style>
      .cls-1 {
        fill: #f4eee4;
        stroke-width: 0px;
      }
    </style>
  </defs>
  <g id="Layer_2-2" data-name="Layer 2">
    <path class="cls-1" d="m153.19,4.06l2.2,125.09h-16.25l-2.2-102.07h-18.79l-19.8,102.07h-41.47L37.07,27.08h-18.79l-2.2,102.07H0L2.2,4.06h46.89l19.64,102.07h18.79L106.13,4.06h47.06Zm59.24,66.86h40.63l-10.83-43.84h-18.79l-11,43.84Zm54.67,58.23l-8.63-35.21h-51.63l-8.63,35.21h-17.6L215.31,4.06h35.04l34.36,125.09h-17.6Zm869.21,0V3.22h69.74v25.22h-52.81v25.05h52.81v24.21h-52.81v27.42h52.81v24.04h-69.74Zm-109.69-38.09s11,16.25,35.04,16.25c15.91,0,29.79-5.76,29.79-12.7s-10.66-11.85-31.99-14.56c-23.87-3.05-43.84-15.4-43.84-39.61,0-26.91,14.9-40.46,43.84-40.46,20.14,0,33.68,7.62,46.89,24.54l-17.94,16.08s-8.13-15.4-31.32-15.4c-12.53,0-24.88,6.09-24.88,14.22s12.36,14.05,32.16,16.59c29.28,3.89,42.99,14.73,42.99,35.04,0,27.93-16.59,41.47-50.27,41.47-19.47,0-36.9-10.33-49.26-27.08l18.79-14.39Zm-42.15-5.59c0,28.61-18.28,47.06-46.89,47.06s-47.73-18.62-47.73-47.06V3.22h18.28v78.88c0,16.59,9.99,25.22,29.45,25.22,18.45,0,29.62-9.14,29.62-25.22V3.22h17.27v82.27Zm-139.48-18.62c0-24.71-16.59-40.63-41.81-40.63s-41.13,15.4-41.13,40.63c0,23.87,16.08,39.27,41.13,39.27s41.81-15.74,41.81-39.27Zm17.27,0c0,38.76-24.04,65.68-59.08,65.68s-58.23-27.25-58.23-65.68S768.49,0,803.19,0s59.08,26.58,59.08,66.86ZM618.85,3.22h17.27v51.46h62.63V3.22h18.28v125.94h-18.28v-47.06h-62.63v47.06h-17.27V3.22Zm-99.19,125.94V4.06h69.74v24.04h-52.81v26.41h52.81v24.04h-52.81v26.41h52.81v24.21h-69.74ZM421.99,4.06h17.1v98.68h51.63v26.41h-68.72V4.06Zm-94.62,61.28h25.9c16.08,0,26.07-6.77,26.07-18.62,0-13.03-9.31-19.64-26.41-19.64h-25.56v38.26Zm-18.11-61.28h48.92c26.24,0,39.27,13.88,39.27,42.66s-15.23,41.64-45.7,41.64h-24.38v40.79h-18.11V4.06Z"/>
  </g>
</svg>