<svg width="854" height="876" viewBox="0 0 854 876" fill="none" xmlns="http://www.w3.org/2000/svg">
<g opacity="0.7" filter="url(#filter0_f_387_1392)">
<path d="M299.74 417.429L253.671 535.462C250.727 543.005 251.465 551.488 255.667 558.409L288.402 612.325C294.957 623.122 308.324 627.646 320.089 623.049L507.569 549.79C511.537 548.24 515.063 545.738 517.838 542.504L596.69 450.609C603.537 442.63 604.904 431.314 600.155 421.934L520.83 265.256C516.403 256.512 507.435 251 497.634 251H367.796C356.241 251 346.073 258.626 342.837 269.718L299.74 417.429Z" fill="#D9D9D9"/>
<path d="M299.74 417.429L253.671 535.462C250.727 543.005 251.465 551.488 255.667 558.409L288.402 612.325C294.957 623.122 308.324 627.646 320.089 623.049L507.569 549.79C511.537 548.24 515.063 545.738 517.838 542.504L596.69 450.609C603.537 442.63 604.904 431.314 600.155 421.934L520.83 265.256C516.403 256.512 507.435 251 497.634 251H367.796C356.241 251 346.073 258.626 342.837 269.718L299.74 417.429Z" fill="url(#paint0_linear_387_1392)"/>
<path d="M299.74 417.429L253.671 535.462C250.727 543.005 251.465 551.488 255.667 558.409L288.402 612.325C294.957 623.122 308.324 627.646 320.089 623.049L507.569 549.79C511.537 548.24 515.063 545.738 517.838 542.504L596.69 450.609C603.537 442.63 604.904 431.314 600.155 421.934L520.83 265.256C516.403 256.512 507.435 251 497.634 251H367.796C356.241 251 346.073 258.626 342.837 269.718L299.74 417.429Z" stroke="#242429" stroke-width="2" stroke-linecap="round"/>
</g>
<defs>
<filter id="filter0_f_387_1392" x="0.890625" y="0" width="853.068" height="875.835" filterUnits="userSpaceOnUse" color-interpolation-filters="sRGB">
<feFlood flood-opacity="0" result="BackgroundImageFix"/>
<feBlend mode="normal" in="SourceGraphic" in2="BackgroundImageFix" result="shape"/>
<feGaussianBlur stdDeviation="125" result="effect1_foregroundBlur_387_1392"/>
</filter>
<linearGradient id="paint0_linear_387_1392" x1="439.603" y1="251" x2="439.603" y2="554.303" gradientUnits="userSpaceOnUse">
<stop stop-color="#2A6AA2"/>
<stop offset="1" stop-color="#00427C"/>
</linearGradient>
</defs>
</svg>
