<svg width="1076" height="1613" viewBox="0 0 1076 1613" fill="none" xmlns="http://www.w3.org/2000/svg">
<g opacity="0.2" filter="url(#filter0_f_572_53)">
<path d="M298.315 667.295C333.825 490.783 328.648 288.588 505.629 255.491C706.95 217.843 775.619 479.337 812.48 680.804C866.197 974.395 738.089 1427.81 449.11 1353.16C183.581 1284.57 244.228 936.154 298.315 667.295Z" fill="url(#paint0_linear_572_53)"/>
<path d="M298.315 667.295C333.825 490.783 328.648 288.588 505.629 255.491C706.95 217.843 775.619 479.337 812.48 680.804C866.197 974.395 738.089 1427.81 449.11 1353.16C183.581 1284.57 244.228 936.154 298.315 667.295Z" stroke="#242429" stroke-width="2" stroke-linecap="round"/>
</g>
<defs>
<filter id="filter0_f_572_53" x="0.341797" y="0.842285" width="1075.11" height="1611.5" filterUnits="userSpaceOnUse" color-interpolation-filters="sRGB">
<feFlood flood-opacity="0" result="BackgroundImageFix"/>
<feBlend mode="normal" in="SourceGraphic" in2="BackgroundImageFix" result="shape"/>
<feGaussianBlur stdDeviation="125" result="effect1_foregroundBlur_572_53"/>
</filter>
<linearGradient id="paint0_linear_572_53" x1="517.03" y1="253.069" x2="568.58" y2="1134.64" gradientUnits="userSpaceOnUse">
<stop stop-color="#2A6AA2"/>
<stop offset="1" stop-color="#00427C"/>
</linearGradient>
</defs>
</svg>
