<svg width="539" height="603" viewBox="0 0 539 603" fill="none" xmlns="http://www.w3.org/2000/svg">
<g opacity="0.6" filter="url(#filter0_f_675_602)">
<path d="M200 262.14L226.604 402.343L419 350.974L353.84 294.197L419 218.11L291.764 200.343L200 262.14Z" fill="url(#paint0_linear_675_602)"/>
</g>
<g filter="url(#filter1_i_675_602)">
<path d="M143.829 352.484L158.898 373.761L184.858 376.172L163.581 391.241L161.17 417.201L146.102 395.924L120.141 393.513L141.418 378.445L143.829 352.484Z" fill="url(#paint1_linear_675_602)" fill-opacity="0.5"/>
</g>
<g filter="url(#filter2_i_675_602)">
<path d="M437.583 385.501L434.394 401.969L444.819 415.109L428.351 411.92L415.211 422.346L418.4 405.878L407.974 392.737L424.442 395.926L437.583 385.501Z" fill="url(#paint2_linear_675_602)" fill-opacity="0.5"/>
</g>
<g filter="url(#filter3_i_675_602)">
<path d="M213.053 131.646L211.221 148.327L222.691 160.576L206.01 158.744L193.761 170.214L195.593 153.533L184.123 141.284L200.804 143.116L213.053 131.646Z" fill="url(#paint3_linear_675_602)" fill-opacity="0.5"/>
</g>
<g filter="url(#filter4_i_675_602)">
<path d="M410.998 225.369L420.637 233.419L433.023 231.341L424.973 240.98L427.051 253.365L417.411 245.316L405.026 247.393L413.076 237.754L410.998 225.369Z" fill="url(#paint4_linear_675_602)" fill-opacity="0.5"/>
</g>
<g filter="url(#filter5_i_675_602)">
<path d="M310.995 350.016C310.656 350.065 310.508 350.321 310.298 350.503C305.36 354.772 300.646 359.227 295.559 363.366C295.144 363.704 294.779 364.109 294.231 364.312C294.111 362.416 294.613 360.586 294.763 358.713C294.978 356.042 295.546 353.409 295.851 350.745C296.065 348.855 296.208 346.952 296.575 345.085C296.902 343.409 296.381 341.853 295.552 340.369C294.099 337.773 292.545 335.217 291.006 332.656C290.703 332.154 290.76 331.897 291.421 331.828C291.561 331.812 291.691 331.759 291.827 331.737C295.213 331.173 298.594 330.595 301.985 330.048C303.729 329.768 305.033 328.988 305.828 327.649C307.335 325.106 308.802 322.548 310.284 319.991C310.391 319.804 310.642 319.602 310.424 319.4C310.213 319.205 309.947 319.405 309.722 319.46C306.388 320.287 303.061 321.128 299.725 321.945C294.665 323.186 289.601 324.412 284.538 325.649C283.776 325.834 283.398 326.276 283.36 326.97C283.278 328.405 283.159 329.837 283.077 331.271C283.035 332.021 283.049 332.776 283.037 333.53C282.734 336.074 282.714 338.64 282.554 341.195C282.367 344.168 282.214 347.146 282.03 350.12C281.929 351.764 281.026 352.924 279.332 353.666C277.198 354.601 275.11 355.612 273.001 356.584C272.592 356.772 272.201 357.022 271.682 356.975C279.631 303.071 287.581 249.167 295.529 195.267C297.283 196.756 298.933 198.328 300.435 200.002C307.244 207.59 312.92 215.751 317.639 224.39C319.667 228.099 320.824 232.036 322.104 235.936C323.587 240.451 325.318 244.938 326.086 249.57C327.1 255.686 327.787 261.825 327.958 267.976C328.2 276.596 327.561 285.134 326.23 293.62C325.662 297.237 325.352 296.036 327.64 299.355C330.452 303.432 333.28 307.501 336.146 311.553C340.033 317.045 341.409 322.932 340.467 329.086C339.075 338.165 337.474 347.213 336.108 356.295C335.519 360.207 334.864 364.11 334.238 368.02C334.178 368.4 334.21 368.932 333.509 368.367C333.623 368.286 333.578 368.204 333.508 368.112C331.331 365.205 329.153 362.302 326.984 359.394C325.298 357.136 323.625 354.867 321.934 352.611C320.213 350.312 318.462 348.028 316.756 345.722C316.381 345.215 316.115 345.215 315.686 345.613C314.842 346.402 313.92 347.129 313.103 347.938C312.403 348.634 311.466 349.147 310.991 350.016L310.995 350.016Z" fill="url(#paint5_linear_675_602)"/>
<path d="M310.995 350.016C310.656 350.065 310.508 350.321 310.298 350.503C305.36 354.772 300.646 359.227 295.559 363.366C295.144 363.704 294.779 364.109 294.231 364.312C294.111 362.416 294.613 360.586 294.763 358.713C294.978 356.042 295.546 353.409 295.851 350.745C296.065 348.855 296.208 346.952 296.575 345.085C296.902 343.409 296.381 341.853 295.552 340.369C294.099 337.773 292.545 335.217 291.006 332.656C290.703 332.154 290.76 331.897 291.421 331.828C291.561 331.812 291.691 331.759 291.827 331.737C295.213 331.173 298.594 330.595 301.985 330.048C303.729 329.768 305.033 328.988 305.828 327.649C307.335 325.106 308.802 322.548 310.284 319.991C310.391 319.804 310.642 319.602 310.424 319.4C310.213 319.205 309.947 319.405 309.722 319.46C306.388 320.287 303.061 321.128 299.725 321.945C294.665 323.186 289.601 324.412 284.538 325.649C283.776 325.834 283.398 326.276 283.36 326.97C283.278 328.405 283.159 329.837 283.077 331.271C283.035 332.021 283.049 332.776 283.037 333.53C282.734 336.074 282.714 338.64 282.554 341.195C282.367 344.168 282.214 347.146 282.03 350.12C281.929 351.764 281.026 352.924 279.332 353.666C277.198 354.601 275.11 355.612 273.001 356.584C272.592 356.772 272.201 357.022 271.682 356.975C279.631 303.071 287.581 249.167 295.529 195.267C297.283 196.756 298.933 198.328 300.435 200.002C307.244 207.59 312.92 215.751 317.639 224.39C319.667 228.099 320.824 232.036 322.104 235.936C323.587 240.451 325.318 244.938 326.086 249.57C327.1 255.686 327.787 261.825 327.958 267.976C328.2 276.596 327.561 285.134 326.23 293.62C325.662 297.237 325.352 296.036 327.64 299.355C330.452 303.432 333.28 307.501 336.146 311.553C340.033 317.045 341.409 322.932 340.467 329.086C339.075 338.165 337.474 347.213 336.108 356.295C335.519 360.207 334.864 364.11 334.238 368.02C334.178 368.4 334.21 368.932 333.509 368.367C333.623 368.286 333.578 368.204 333.508 368.112C331.331 365.205 329.153 362.302 326.984 359.394C325.298 357.136 323.625 354.867 321.934 352.611C320.213 350.312 318.462 348.028 316.756 345.722C316.381 345.215 316.115 345.215 315.686 345.613C314.842 346.402 313.92 347.129 313.103 347.938C312.403 348.634 311.466 349.147 310.991 350.016L310.995 350.016Z" fill="black" fill-opacity="0.3"/>
<path d="M295.521 195.265C287.572 249.168 279.622 303.072 271.674 356.973C271.163 356.872 270.86 356.519 270.524 356.221C268.785 354.682 267.077 353.111 265.304 351.599C263.896 350.4 263.362 349.032 263.74 347.426C264.434 344.478 265.158 341.535 265.848 338.586C266.425 336.116 267.148 333.673 267.57 331.17C267.624 331.086 267.704 331.009 267.725 330.918C268.217 328.827 268.711 326.74 269.18 324.646C269.304 324.088 269.017 323.634 268.467 323.307C267.658 322.825 266.844 322.348 266.031 321.868C259.353 317.918 252.674 313.965 245.991 310.018C245.813 309.913 245.637 309.684 245.403 309.8C245.172 309.917 245.298 310.145 245.346 310.339C246.023 313.191 246.684 316.043 247.373 318.891C247.765 320.516 248.846 321.687 250.561 322.509C253.71 324.021 256.816 325.611 259.945 327.156C260.541 327.45 260.628 327.662 260.119 328.12C257.877 330.143 255.67 332.196 253.486 334.267C252.472 335.23 251.631 336.307 251.391 337.652C251.047 339.571 250.762 341.503 250.418 343.425C249.729 347.293 249.222 351.195 248.485 355.056C248.331 355.867 248.321 356.71 247.949 357.48C246.483 355.742 245.355 353.835 244.184 351.96C241.606 347.84 239.078 343.7 236.521 339.57C236.385 339.353 236.213 339.154 236.057 338.945C236.092 338.629 235.862 338.379 235.706 338.121C234.74 336.535 233.73 334.963 232.8 333.363C232.456 332.775 232.247 332.8 231.733 333.182C226.562 337.018 221.364 340.826 216.183 344.65C213.784 346.423 211.409 348.217 209.024 350.002L209.041 349.988C208.978 350.031 208.915 350.071 208.851 350.111C208.264 350.067 208.559 349.714 208.585 349.515C208.755 348.159 208.958 346.805 209.146 345.452C209.974 339.451 210.82 333.453 211.622 327.451C212.381 321.813 213.005 316.156 213.832 310.528C214.781 304.067 218.013 298.68 223.619 294.408C227.945 291.112 232.138 287.686 236.397 284.325C237.023 283.831 237.335 283.236 237.451 282.503C238.072 278.547 238.549 274.566 239.382 270.647C241.336 261.481 244.268 252.6 247.981 243.906C250.797 237.315 254.189 231.957 257.562 227.53C263.5 219.736 271.327 211.374 279.002 205.496C283.825 201.806 288.893 198.384 294.563 195.663C294.871 195.516 295.13 195.279 295.518 195.261L295.521 195.265ZM260.866 224.81C259.544 226.202 258.513 227.768 257.409 229.29C254.534 233.258 252.044 237.41 249.999 241.772C247.124 247.906 244.947 254.248 243.211 260.727C241.987 265.282 240.934 269.865 240.157 274.509C240.054 275.135 239.965 275.763 239.82 276.38C239.341 278.443 239.169 280.541 239.044 282.65C239.433 281.722 239.758 280.782 240.12 279.85C243.565 270.983 247.22 262.192 251.374 253.576C254.023 248.089 256.816 242.663 260.096 237.446C260.942 236.098 265.896 229.063 266.167 228.7C268.669 225.322 271.383 222.08 274.115 218.844C277.366 214.991 280.789 211.254 284.24 207.539C287.397 204.139 290.694 200.846 293.964 197.529C293.978 197.514 293.991 197.5 294.004 197.489C293.994 197.504 293.98 197.521 293.971 197.536C293.577 197.521 293.278 197.715 292.973 197.867C291.755 198.482 290.516 199.079 289.356 199.765C284.548 202.607 280.004 205.729 275.846 209.252C272.093 212.433 268.548 215.778 265.342 219.383C264.046 220.841 260.955 224.771 260.863 224.806L260.866 224.81ZM222.168 298.225C221.56 298.548 221.181 299.055 220.771 299.538C217.897 302.907 216.224 306.81 215.549 310.919C213.585 322.897 211.925 334.925 210.151 346.932C210.135 347.04 210.062 347.171 210.309 347.256C212.134 345.751 213.973 344.236 215.816 342.721C217.023 341.95 218.006 340.966 219.129 340.117C219.339 339.958 219.335 339.728 219.374 339.515C220.008 335.763 220.618 332.008 221.359 328.275C221.769 326.219 222.053 324.14 222.415 322.073C223.135 317.993 223.769 313.901 224.937 309.904C225.698 307.304 226.593 304.746 227.798 302.286C230.389 296.987 233.406 291.875 236.365 286.738C236.494 286.512 236.746 286.303 236.68 285.898C233.237 288.807 229.874 291.642 226.518 294.485C225.059 295.723 223.516 296.886 222.172 298.223L222.168 298.225Z" fill="url(#paint6_linear_675_602)"/>
<path d="M295.521 195.265C287.572 249.168 279.622 303.072 271.674 356.973C271.163 356.872 270.86 356.519 270.524 356.221C268.785 354.682 267.077 353.111 265.304 351.599C263.896 350.4 263.362 349.032 263.74 347.426C264.434 344.478 265.158 341.535 265.848 338.586C266.425 336.116 267.148 333.673 267.57 331.17C267.624 331.086 267.704 331.009 267.725 330.918C268.217 328.827 268.711 326.74 269.18 324.646C269.304 324.088 269.017 323.634 268.467 323.307C267.658 322.825 266.844 322.348 266.031 321.868C259.353 317.918 252.674 313.965 245.991 310.018C245.813 309.913 245.637 309.684 245.403 309.8C245.172 309.917 245.298 310.145 245.346 310.339C246.023 313.191 246.684 316.043 247.373 318.891C247.765 320.516 248.846 321.687 250.561 322.509C253.71 324.021 256.816 325.611 259.945 327.156C260.541 327.45 260.628 327.662 260.119 328.12C257.877 330.143 255.67 332.196 253.486 334.267C252.472 335.23 251.631 336.307 251.391 337.652C251.047 339.571 250.762 341.503 250.418 343.425C249.729 347.293 249.222 351.195 248.485 355.056C248.331 355.867 248.321 356.71 247.949 357.48C246.483 355.742 245.355 353.835 244.184 351.96C241.606 347.84 239.078 343.7 236.521 339.57C236.385 339.353 236.213 339.154 236.057 338.945C236.092 338.629 235.862 338.379 235.706 338.121C234.74 336.535 233.73 334.963 232.8 333.363C232.456 332.775 232.247 332.8 231.733 333.182C226.562 337.018 221.364 340.826 216.183 344.65C213.784 346.423 211.409 348.217 209.024 350.002L209.041 349.988C208.978 350.031 208.915 350.071 208.851 350.111C208.264 350.067 208.559 349.714 208.585 349.515C208.755 348.159 208.958 346.805 209.146 345.452C209.974 339.451 210.82 333.453 211.622 327.451C212.381 321.813 213.005 316.156 213.832 310.528C214.781 304.067 218.013 298.68 223.619 294.408C227.945 291.112 232.138 287.686 236.397 284.325C237.023 283.831 237.335 283.236 237.451 282.503C238.072 278.547 238.549 274.566 239.382 270.647C241.336 261.481 244.268 252.6 247.981 243.906C250.797 237.315 254.189 231.957 257.562 227.53C263.5 219.736 271.327 211.374 279.002 205.496C283.825 201.806 288.893 198.384 294.563 195.663C294.871 195.516 295.13 195.279 295.518 195.261L295.521 195.265ZM260.866 224.81C259.544 226.202 258.513 227.768 257.409 229.29C254.534 233.258 252.044 237.41 249.999 241.772C247.124 247.906 244.947 254.248 243.211 260.727C241.987 265.282 240.934 269.865 240.157 274.509C240.054 275.135 239.965 275.763 239.82 276.38C239.341 278.443 239.169 280.541 239.044 282.65C239.433 281.722 239.758 280.782 240.12 279.85C243.565 270.983 247.22 262.192 251.374 253.576C254.023 248.089 256.816 242.663 260.096 237.446C260.942 236.098 265.896 229.063 266.167 228.7C268.669 225.322 271.383 222.08 274.115 218.844C277.366 214.991 280.789 211.254 284.24 207.539C287.397 204.139 290.694 200.846 293.964 197.529C293.978 197.514 293.991 197.5 294.004 197.489C293.994 197.504 293.98 197.521 293.971 197.536C293.577 197.521 293.278 197.715 292.973 197.867C291.755 198.482 290.516 199.079 289.356 199.765C284.548 202.607 280.004 205.729 275.846 209.252C272.093 212.433 268.548 215.778 265.342 219.383C264.046 220.841 260.955 224.771 260.863 224.806L260.866 224.81ZM222.168 298.225C221.56 298.548 221.181 299.055 220.771 299.538C217.897 302.907 216.224 306.81 215.549 310.919C213.585 322.897 211.925 334.925 210.151 346.932C210.135 347.04 210.062 347.171 210.309 347.256C212.134 345.751 213.973 344.236 215.816 342.721C217.023 341.95 218.006 340.966 219.129 340.117C219.339 339.958 219.335 339.728 219.374 339.515C220.008 335.763 220.618 332.008 221.359 328.275C221.769 326.219 222.053 324.14 222.415 322.073C223.135 317.993 223.769 313.901 224.937 309.904C225.698 307.304 226.593 304.746 227.798 302.286C230.389 296.987 233.406 291.875 236.365 286.738C236.494 286.512 236.746 286.303 236.68 285.898C233.237 288.807 229.874 291.642 226.518 294.485C225.059 295.723 223.516 296.886 222.172 298.223L222.168 298.225Z" fill="black" fill-opacity="0.3"/>
<path d="M247.952 357.486C248.321 356.716 248.331 355.877 248.489 355.062C249.23 351.202 249.733 347.3 250.421 343.432C250.762 341.509 251.046 339.581 251.394 337.659C251.635 336.31 252.476 335.233 253.49 334.273C255.673 332.203 257.877 330.149 260.122 328.127C260.632 327.665 260.545 327.456 259.948 327.162C256.816 325.617 253.713 324.03 250.565 322.516C248.85 321.693 247.769 320.523 247.376 318.897C246.688 316.047 246.026 313.197 245.35 310.345C245.306 310.152 245.176 309.924 245.406 309.807C245.64 309.691 245.812 309.919 245.995 310.025C252.678 313.972 259.356 317.925 266.035 321.875C266.844 322.354 267.662 322.828 268.47 323.314C269.02 323.644 269.307 324.095 269.183 324.653C268.714 326.747 268.22 328.834 267.729 330.924C267.708 331.016 267.624 331.092 267.574 331.176C265.996 332.701 264.44 334.242 263.145 335.969C262.747 336.499 262.518 337.071 262.426 337.715C261.679 342.909 260.891 348.101 260.159 353.298C260.073 353.907 259.843 354.2 259.156 354.39C255.625 355.365 252.117 356.396 248.597 357.402C248.398 357.457 248.202 357.602 247.96 357.488L247.952 357.486Z" fill="url(#paint7_linear_675_602)"/>
<path d="M247.952 357.486C248.321 356.716 248.331 355.877 248.489 355.062C249.23 351.202 249.733 347.3 250.421 343.432C250.762 341.509 251.046 339.581 251.394 337.659C251.635 336.31 252.476 335.233 253.49 334.273C255.673 332.203 257.877 330.149 260.122 328.127C260.632 327.665 260.545 327.456 259.948 327.162C256.816 325.617 253.713 324.03 250.565 322.516C248.85 321.693 247.769 320.523 247.376 318.897C246.688 316.047 246.026 313.197 245.35 310.345C245.306 310.152 245.176 309.924 245.406 309.807C245.64 309.691 245.812 309.919 245.995 310.025C252.678 313.972 259.356 317.925 266.035 321.875C266.844 322.354 267.662 322.828 268.47 323.314C269.02 323.644 269.307 324.095 269.183 324.653C268.714 326.747 268.22 328.834 267.729 330.924C267.708 331.016 267.624 331.092 267.574 331.176C265.996 332.701 264.44 334.242 263.145 335.969C262.747 336.499 262.518 337.071 262.426 337.715C261.679 342.909 260.891 348.101 260.159 353.298C260.073 353.907 259.843 354.2 259.156 354.39C255.625 355.365 252.117 356.396 248.597 357.402C248.398 357.457 248.202 357.602 247.96 357.488L247.952 357.486Z" fill="black" fill-opacity="0.3"/>
<path d="M283.035 333.532C283.047 332.777 283.033 332.023 283.075 331.273C283.153 329.838 283.276 328.406 283.358 326.972C283.396 326.277 283.774 325.836 284.536 325.65C289.598 324.417 294.663 323.19 299.723 321.947C303.059 321.127 306.387 320.286 309.72 319.461C309.949 319.407 310.211 319.203 310.422 319.401C310.64 319.604 310.393 319.806 310.282 319.993C308.8 322.546 307.333 325.108 305.827 327.651C305.031 328.993 303.727 329.77 301.983 330.049C298.592 330.596 295.212 331.171 291.825 331.739C291.689 331.761 291.559 331.814 291.42 331.829C290.758 331.899 290.701 332.155 291.004 332.658C292.543 335.218 294.101 337.775 295.551 340.371C296.383 341.858 296.9 343.414 296.573 345.087C296.206 346.954 296.063 348.854 295.849 350.746C295.544 353.411 294.98 356.044 294.762 358.715C294.612 360.584 294.109 362.415 294.229 364.314C293.722 364.239 293.405 363.885 293.025 363.642C290.104 361.775 287.212 359.873 284.272 358.025C283.753 357.7 283.677 357.411 283.748 356.93C284.547 351.619 285.322 346.308 286.113 340.995C286.172 340.601 286.19 340.218 286.064 339.833C285.339 337.641 284.275 335.557 283.035 333.535L283.035 333.532Z" fill="url(#paint8_linear_675_602)"/>
<path d="M283.035 333.532C283.047 332.777 283.033 332.023 283.075 331.273C283.153 329.838 283.276 328.406 283.358 326.972C283.396 326.277 283.774 325.836 284.536 325.65C289.598 324.417 294.663 323.19 299.723 321.947C303.059 321.127 306.387 320.286 309.72 319.461C309.949 319.407 310.211 319.203 310.422 319.401C310.64 319.604 310.393 319.806 310.282 319.993C308.8 322.546 307.333 325.108 305.827 327.651C305.031 328.993 303.727 329.77 301.983 330.049C298.592 330.596 295.212 331.171 291.825 331.739C291.689 331.761 291.559 331.814 291.42 331.829C290.758 331.899 290.701 332.155 291.004 332.658C292.543 335.218 294.101 337.775 295.551 340.371C296.383 341.858 296.9 343.414 296.573 345.087C296.206 346.954 296.063 348.854 295.849 350.746C295.544 353.411 294.98 356.044 294.762 358.715C294.612 360.584 294.109 362.415 294.229 364.314C293.722 364.239 293.405 363.885 293.025 363.642C290.104 361.775 287.212 359.873 284.272 358.025C283.753 357.7 283.677 357.411 283.748 356.93C284.547 351.619 285.322 346.308 286.113 340.995C286.172 340.601 286.19 340.218 286.064 339.833C285.339 337.641 284.275 335.557 283.035 333.535L283.035 333.532Z" fill="black" fill-opacity="0.3"/>
<path d="M209.028 350.006C211.414 348.22 213.789 346.427 216.187 344.654C221.369 340.83 226.567 337.021 231.738 333.186C232.252 332.804 232.465 332.776 232.805 333.366C233.734 334.97 234.745 336.539 235.711 338.125C235.871 338.384 236.097 338.633 236.062 338.949C233.821 340.474 231.581 342.002 229.344 343.531C229.103 343.695 228.856 343.842 228.565 343.933C222.263 345.926 215.96 347.926 209.655 349.915C209.46 349.974 209.267 350.123 209.022 350.001L209.028 350.006Z" fill="url(#paint9_linear_675_602)"/>
<path d="M209.028 350.006C211.414 348.22 213.789 346.427 216.187 344.654C221.369 340.83 226.567 337.021 231.738 333.186C232.252 332.804 232.465 332.776 232.805 333.366C233.734 334.97 234.745 336.539 235.711 338.125C235.871 338.384 236.097 338.633 236.062 338.949C233.821 340.474 231.581 342.002 229.344 343.531C229.103 343.695 228.856 343.842 228.565 343.933C222.263 345.926 215.96 347.926 209.655 349.915C209.46 349.974 209.267 350.123 209.022 350.001L209.028 350.006Z" fill="black" fill-opacity="0.3"/>
<path d="M310.995 350.016C311.466 349.146 312.406 348.634 313.107 347.939C313.923 347.13 314.842 346.401 315.69 345.613C316.118 345.215 316.381 345.211 316.759 345.722C318.465 348.028 320.216 350.312 321.938 352.612C323.628 354.867 325.301 357.136 326.987 359.394C329.157 362.302 331.338 365.206 333.511 368.112C333.578 368.2 333.623 368.285 333.512 368.367C330.405 366.26 327.298 364.159 324.192 362.048C322.741 361.062 321.351 360.003 319.843 359.09C317.416 357.622 315.457 355.818 313.899 353.651C313.001 352.403 311.97 351.227 311.002 350.017L310.995 350.016Z" fill="url(#paint10_linear_675_602)"/>
<path d="M310.995 350.016C311.466 349.146 312.406 348.634 313.107 347.939C313.923 347.13 314.842 346.401 315.69 345.613C316.118 345.215 316.381 345.211 316.759 345.722C318.465 348.028 320.216 350.312 321.938 352.612C323.628 354.867 325.301 357.136 326.987 359.394C329.157 362.302 331.338 365.206 333.511 368.112C333.578 368.2 333.623 368.285 333.512 368.367C330.405 366.26 327.298 364.159 324.192 362.048C322.741 361.062 321.351 360.003 319.843 359.09C317.416 357.622 315.457 355.818 313.899 353.651C313.001 352.403 311.97 351.227 311.002 350.017L310.995 350.016Z" fill="black" fill-opacity="0.3"/>
<path d="M222.174 298.226C223.518 296.889 225.061 295.726 226.519 294.488C229.876 291.645 233.239 288.81 236.681 285.901C236.743 286.306 236.496 286.515 236.367 286.741C233.407 291.878 230.391 296.99 227.8 302.289C226.595 304.746 225.7 307.304 224.939 309.908C223.771 313.901 223.137 317.993 222.417 322.076C222.051 324.142 221.767 326.221 221.361 328.279C220.62 332.011 220.009 335.766 219.376 339.518C219.341 339.732 219.341 339.961 219.131 340.12C218.008 340.969 217.028 341.954 215.817 342.724C215.86 342.383 215.898 342.045 215.949 341.706C218.022 327.649 220.095 313.591 222.171 299.538C222.236 299.099 222.261 298.668 222.17 298.229L222.174 298.226Z" fill="url(#paint11_linear_675_602)"/>
<path d="M222.174 298.226C223.518 296.889 225.061 295.726 226.519 294.488C229.876 291.645 233.239 288.81 236.681 285.901C236.743 286.306 236.496 286.515 236.367 286.741C233.407 291.878 230.391 296.99 227.8 302.289C226.595 304.746 225.7 307.304 224.939 309.908C223.771 313.901 223.137 317.993 222.417 322.076C222.051 324.142 221.767 326.221 221.361 328.279C220.62 332.011 220.009 335.766 219.376 339.518C219.341 339.732 219.341 339.961 219.131 340.12C218.008 340.969 217.028 341.954 215.817 342.724C215.86 342.383 215.898 342.045 215.949 341.706C218.022 327.649 220.095 313.591 222.171 299.538C222.236 299.099 222.261 298.668 222.17 298.229L222.174 298.226Z" fill="black" fill-opacity="0.3"/>
<path d="M222.174 298.226C222.265 298.665 222.239 299.1 222.175 299.535C220.095 313.592 218.025 327.649 215.953 341.703C215.903 342.043 215.864 342.381 215.822 342.721C213.983 344.237 212.14 345.752 210.315 347.257C210.072 347.172 210.141 347.038 210.157 346.932C211.932 334.922 213.587 322.894 215.555 310.919C216.23 306.81 217.902 302.908 220.776 299.539C221.186 299.059 221.566 298.549 222.174 298.226Z" fill="url(#paint12_linear_675_602)"/>
<path d="M222.174 298.226C222.265 298.665 222.239 299.1 222.175 299.535C220.095 313.592 218.025 327.649 215.953 341.703C215.903 342.043 215.864 342.381 215.822 342.721C213.983 344.237 212.14 345.752 210.315 347.257C210.072 347.172 210.141 347.038 210.157 346.932C211.932 334.922 213.587 322.894 215.555 310.919C216.23 306.81 217.902 302.908 220.776 299.539C221.186 299.059 221.566 298.549 222.174 298.226Z" fill="black" fill-opacity="0.3"/>
<path d="M262.643 233.41C261.797 234.758 260.946 236.105 260.1 237.453C256.821 242.667 254.024 248.092 251.378 253.583C247.22 262.198 243.566 270.989 240.124 279.857C239.762 280.789 239.433 281.729 239.049 282.657C239.173 280.545 239.346 278.447 239.825 276.387C239.969 275.77 240.055 275.138 240.162 274.516C240.934 269.871 241.991 265.289 243.215 260.734C244.955 254.256 247.132 247.914 250.003 241.779C252.044 237.417 254.535 233.265 257.413 229.298C258.518 227.775 259.549 226.209 260.87 224.817C260.952 224.881 261.125 233.14 262.65 233.414L262.643 233.41ZM256.423 233.998L256.388 234.026L256.44 234.04L256.427 233.999L256.423 233.998Z" fill="url(#paint13_linear_675_602)"/>
<path d="M262.643 233.41C261.797 234.758 260.946 236.105 260.1 237.453C256.821 242.667 254.024 248.092 251.378 253.583C247.22 262.198 243.566 270.989 240.124 279.857C239.762 280.789 239.433 281.729 239.049 282.657C239.173 280.545 239.346 278.447 239.825 276.387C239.969 275.77 240.055 275.138 240.162 274.516C240.934 269.871 241.991 265.289 243.215 260.734C244.955 254.256 247.132 247.914 250.003 241.779C252.044 237.417 254.535 233.265 257.413 229.298C258.518 227.775 259.549 226.209 260.87 224.817C260.952 224.881 261.125 233.14 262.65 233.414L262.643 233.41ZM256.423 233.998L256.388 234.026L256.44 234.04L256.427 233.999L256.423 233.998Z" fill="black" fill-opacity="0.3"/>
<path d="M293.959 197.532C290.689 200.846 287.392 204.143 284.235 207.542C280.784 211.258 277.361 214.994 274.111 218.848C271.382 222.084 268.664 225.326 266.162 228.704C265.891 229.066 265.634 229.438 265.371 229.805C264.745 229.732 264.367 229.326 264.012 228.946C262.939 227.797 261.3 226.436 260.59 225.104C260.595 225.095 261.074 224.504 261.595 223.865C262.855 222.345 264.036 220.847 265.334 219.386C268.54 215.781 272.085 212.436 275.838 209.255C279.995 205.732 284.54 202.61 289.348 199.768C290.512 199.082 291.75 198.486 292.965 197.87C293.265 197.718 293.569 197.52 293.962 197.539L293.956 197.532L293.959 197.532Z" fill="url(#paint14_linear_675_602)"/>
<path d="M293.959 197.532C290.689 200.846 287.392 204.143 284.235 207.542C280.784 211.258 277.361 214.994 274.111 218.848C271.382 222.084 268.664 225.326 266.162 228.704C265.891 229.066 265.634 229.438 265.371 229.805C264.745 229.732 264.367 229.326 264.012 228.946C262.939 227.797 261.3 226.436 260.59 225.104C260.595 225.095 261.074 224.504 261.595 223.865C262.855 222.345 264.036 220.847 265.334 219.386C268.54 215.781 272.085 212.436 275.838 209.255C279.995 205.732 284.54 202.61 289.348 199.768C290.512 199.082 291.75 198.486 292.965 197.87C293.265 197.718 293.569 197.52 293.962 197.539L293.956 197.532L293.959 197.532Z" fill="black" fill-opacity="0.3"/>
<path d="M274.295 214.724C274.304 214.71 274.317 214.694 274.327 214.679C274.314 214.693 274.301 214.707 274.289 214.717L274.295 214.724Z" fill="url(#paint15_linear_675_602)"/>
<path d="M274.295 214.724C274.304 214.71 274.317 214.694 274.327 214.679C274.314 214.693 274.301 214.707 274.289 214.717L274.295 214.724Z" fill="black" fill-opacity="0.3"/>
<path d="M256.429 233.995L256.444 234.035L256.396 234.022L256.429 233.995Z" fill="url(#paint16_linear_675_602)"/>
<path d="M256.429 233.995L256.444 234.035L256.396 234.022L256.429 233.995Z" fill="black" fill-opacity="0.3"/>
<path d="M260.122 328.127C260.632 327.665 260.545 327.456 259.948 327.162C256.816 325.617 253.713 324.03 250.565 322.516C248.85 321.693 247.769 320.523 247.376 318.897C246.688 316.047 246.026 313.197 245.35 310.345C245.306 310.152 245.176 309.924 245.406 309.807C245.64 309.691 245.812 309.919 245.995 310.025C252.678 313.972 259.356 317.925 266.035 321.875C266.844 322.354 267.662 322.828 268.47 323.314C269.02 323.644 269.307 324.095 269.183 324.653" fill="url(#paint17_linear_675_602)"/>
<path d="M260.122 328.127C260.632 327.665 260.545 327.456 259.948 327.162C256.816 325.617 253.713 324.03 250.565 322.516C248.85 321.693 247.769 320.523 247.376 318.897C246.688 316.047 246.026 313.197 245.35 310.345C245.306 310.152 245.176 309.924 245.406 309.807C245.64 309.691 245.812 309.919 245.995 310.025C252.678 313.972 259.356 317.925 266.035 321.875C266.844 322.354 267.662 322.828 268.47 323.314C269.02 323.644 269.307 324.095 269.183 324.653" fill="black" fill-opacity="0.3"/>
<path d="M251.396 337.658C251.636 336.31 252.477 335.233 253.491 334.273C255.674 332.203 257.878 330.149 260.123 328.127" fill="url(#paint18_linear_675_602)"/>
<path d="M251.396 337.658C251.636 336.31 252.477 335.233 253.491 334.273C255.674 332.203 257.878 330.149 260.123 328.127" fill="black" fill-opacity="0.3"/>
<path d="M262.623 336.899C262.528 337.157 262.461 337.429 262.419 337.714C261.672 342.908 260.884 348.1 260.152 353.297C260.066 353.906 259.836 354.199 259.149 354.389C255.618 355.364 252.11 356.394 248.59 357.4C248.391 357.456 248.195 357.601 247.953 357.486C248.322 356.716 248.331 355.876 248.489 355.062C249.23 351.202 249.733 347.3 250.422 343.432C250.762 341.509 251.047 339.581 251.395 337.659" fill="url(#paint19_linear_675_602)"/>
<path d="M262.623 336.899C262.528 337.157 262.461 337.429 262.419 337.714C261.672 342.908 260.884 348.1 260.152 353.297C260.066 353.906 259.836 354.199 259.149 354.389C255.618 355.364 252.11 356.394 248.59 357.4C248.391 357.456 248.195 357.601 247.953 357.486C248.322 356.716 248.331 355.876 248.489 355.062C249.23 351.202 249.733 347.3 250.422 343.432C250.762 341.509 251.047 339.581 251.395 337.659" fill="black" fill-opacity="0.3"/>
<path d="M269.183 324.65C268.714 326.744 268.22 328.831 267.728 330.922C267.707 331.014 267.624 331.09 267.573 331.174C265.996 332.699 264.439 334.24 263.144 335.966C262.922 336.264 262.75 336.573 262.629 336.902" fill="url(#paint20_linear_675_602)"/>
<path d="M269.183 324.65C268.714 326.744 268.22 328.831 267.728 330.922C267.707 331.014 267.624 331.09 267.573 331.174C265.996 332.699 264.439 334.24 263.144 335.966C262.922 336.264 262.75 336.573 262.629 336.902" fill="black" fill-opacity="0.3"/>
<path d="M286.15 340.508C286.153 340.279 286.129 340.053 286.056 339.83C285.331 337.638 284.267 335.554 283.026 333.532C283.038 332.777 283.024 332.023 283.066 331.273C283.144 329.838 283.268 328.407 283.35 326.972" fill="url(#paint21_linear_675_602)"/>
<path d="M286.15 340.508C286.153 340.279 286.129 340.053 286.056 339.83C285.331 337.638 284.267 335.554 283.026 333.532C283.038 332.777 283.024 332.023 283.066 331.273C283.144 329.838 283.268 328.407 283.35 326.972" fill="black" fill-opacity="0.3"/>
<path d="M296.67 343.855C296.686 344.26 296.656 344.671 296.575 345.091C296.208 346.958 296.065 348.857 295.851 350.75C295.546 353.415 294.982 356.048 294.764 358.719C294.614 360.588 294.111 362.418 294.231 364.318C293.724 364.243 293.407 363.889 293.027 363.646C290.106 361.779 287.214 359.876 284.274 358.029C283.755 357.704 283.679 357.414 283.75 356.934C284.549 351.623 285.324 346.311 286.115 340.999C286.139 340.836 286.156 340.674 286.16 340.515" fill="url(#paint22_linear_675_602)"/>
<path d="M296.67 343.855C296.686 344.26 296.656 344.671 296.575 345.091C296.208 346.958 296.065 348.857 295.851 350.75C295.546 353.415 294.982 356.048 294.764 358.719C294.614 360.588 294.111 362.418 294.231 364.318C293.724 364.243 293.407 363.889 293.027 363.646C290.106 361.779 287.214 359.876 284.274 358.029C283.755 357.704 283.679 357.414 283.75 356.934C284.549 351.623 285.324 346.311 286.115 340.999C286.139 340.836 286.156 340.674 286.16 340.515" fill="black" fill-opacity="0.3"/>
<path d="M290.998 332.657C292.537 335.217 294.095 337.774 295.545 340.37C296.169 341.483 296.616 342.639 296.661 343.853" fill="url(#paint23_linear_675_602)"/>
<path d="M290.998 332.657C292.537 335.217 294.095 337.774 295.545 340.37C296.169 341.483 296.616 342.639 296.661 343.853" fill="black" fill-opacity="0.3"/>
<path d="M209.028 350.006C211.414 348.22 213.789 346.427 216.187 344.654C221.369 340.83 226.567 337.021 231.738 333.186C232.252 332.804 232.465 332.776 232.805 333.366C233.734 334.97 234.745 336.539 235.711 338.125C235.871 338.384 236.097 338.633 236.062 338.949C233.821 340.474 231.581 342.002 229.344 343.531C229.103 343.695 228.856 343.842 228.565 343.933C222.263 345.926 215.96 347.926 209.655 349.915C209.46 349.974 209.267 350.123 209.022 350.001L209.028 350.006Z" fill="url(#paint24_linear_675_602)"/>
<path d="M209.028 350.006C211.414 348.22 213.789 346.427 216.187 344.654C221.369 340.83 226.567 337.021 231.738 333.186C232.252 332.804 232.465 332.776 232.805 333.366C233.734 334.97 234.745 336.539 235.711 338.125C235.871 338.384 236.097 338.633 236.062 338.949C233.821 340.474 231.581 342.002 229.344 343.531C229.103 343.695 228.856 343.842 228.565 343.933C222.263 345.926 215.96 347.926 209.655 349.915C209.46 349.974 209.267 350.123 209.022 350.001L209.028 350.006Z" fill="black" fill-opacity="0.3"/>
<path d="M310.995 350.016C311.466 349.146 312.406 348.634 313.107 347.939C313.923 347.13 314.842 346.401 315.69 345.613C316.118 345.215 316.381 345.211 316.759 345.722C318.465 348.028 320.216 350.312 321.938 352.612C323.628 354.867 325.301 357.136 326.987 359.394C329.157 362.302 331.338 365.206 333.511 368.112C333.578 368.2 333.623 368.285 333.512 368.367C330.405 366.26 327.298 364.159 324.192 362.048C322.741 361.062 321.351 360.003 319.843 359.09C317.416 357.622 315.457 355.818 313.899 353.651C313.001 352.403 311.97 351.227 311.002 350.017L310.995 350.016Z" fill="url(#paint25_linear_675_602)"/>
<path d="M310.995 350.016C311.466 349.146 312.406 348.634 313.107 347.939C313.923 347.13 314.842 346.401 315.69 345.613C316.118 345.215 316.381 345.211 316.759 345.722C318.465 348.028 320.216 350.312 321.938 352.612C323.628 354.867 325.301 357.136 326.987 359.394C329.157 362.302 331.338 365.206 333.511 368.112C333.578 368.2 333.623 368.285 333.512 368.367C330.405 366.26 327.298 364.159 324.192 362.048C322.741 361.062 321.351 360.003 319.843 359.09C317.416 357.622 315.457 355.818 313.899 353.651C313.001 352.403 311.97 351.227 311.002 350.017L310.995 350.016Z" fill="black" fill-opacity="0.3"/>
<path d="M222.178 298.225C223.522 296.889 225.065 295.726 226.523 294.488C229.88 291.645 233.243 288.809 236.685 285.9C236.747 286.306 236.499 286.514 236.371 286.741C233.411 291.878 230.395 296.989 227.804 302.288C226.599 304.745 225.704 307.303 224.943 309.907C223.775 313.901 223.141 317.993 222.421 322.075C222.055 324.142 221.771 326.221 221.365 328.278C220.624 332.011 220.013 335.766 219.38 339.518C219.345 339.732 219.345 339.961 219.135 340.12C218.012 340.968 217.032 341.953 215.821 342.723C215.864 342.383 215.902 342.045 215.952 341.705C218.025 327.648 220.098 313.591 222.175 299.537C222.239 299.099 222.265 298.667 222.174 298.228L222.178 298.225Z" fill="url(#paint26_linear_675_602)"/>
<path d="M222.178 298.225C223.522 296.889 225.065 295.726 226.523 294.488C229.88 291.645 233.243 288.809 236.685 285.9C236.747 286.306 236.499 286.514 236.371 286.741C233.411 291.878 230.395 296.989 227.804 302.288C226.599 304.745 225.704 307.303 224.943 309.907C223.775 313.901 223.141 317.993 222.421 322.075C222.055 324.142 221.771 326.221 221.365 328.278C220.624 332.011 220.013 335.766 219.38 339.518C219.345 339.732 219.345 339.961 219.135 340.12C218.012 340.968 217.032 341.953 215.821 342.723C215.864 342.383 215.902 342.045 215.952 341.705C218.025 327.648 220.098 313.591 222.175 299.537C222.239 299.099 222.265 298.667 222.174 298.228L222.178 298.225Z" fill="black" fill-opacity="0.3"/>
<path d="M222.174 298.227C222.265 298.666 222.239 299.1 222.175 299.536C220.095 313.592 218.025 327.65 215.953 341.704C215.903 342.043 215.864 342.381 215.822 342.722C213.983 344.238 212.14 345.753 210.315 347.257C210.072 347.172 210.141 347.038 210.157 346.933C211.932 334.923 213.587 322.895 215.555 310.92C216.23 306.811 217.902 302.908 220.776 299.539C221.186 299.059 221.566 298.549 222.174 298.227Z" fill="url(#paint27_linear_675_602)"/>
<path d="M222.174 298.227C222.265 298.666 222.239 299.1 222.175 299.536C220.095 313.592 218.025 327.65 215.953 341.704C215.903 342.043 215.864 342.381 215.822 342.722C213.983 344.238 212.14 345.753 210.315 347.257C210.072 347.172 210.141 347.038 210.157 346.933C211.932 334.923 213.587 322.895 215.555 310.92C216.23 306.811 217.902 302.908 220.776 299.539C221.186 299.059 221.566 298.549 222.174 298.227Z" fill="black" fill-opacity="0.3"/>
<path d="M262.641 233.411C261.795 234.758 260.945 236.106 260.098 237.453C256.819 242.667 254.022 248.093 251.376 253.583C247.218 262.199 243.564 270.99 240.122 279.858C239.76 280.789 239.431 281.729 239.047 282.658C239.171 280.546 239.344 278.447 239.823 276.387C239.967 275.77 240.053 275.138 240.16 274.516C240.932 269.872 241.989 265.289 243.213 260.734C244.953 254.256 247.13 247.914 250.001 241.78C252.042 237.417 254.533 233.265 257.411 229.298C258.516 227.776 259.547 226.21 260.868 224.817C260.95 224.882 261.032 224.949 261.113 225.017L261.107 225.006C261.128 225.873 261.538 226.683 261.733 227.527C262.481 230.7 262.211 231.24 258.996 232.788C258.237 233.154 257.472 233.509 256.714 233.872C257.258 233.903 257.737 233.803 258.226 233.721C259.681 233.485 261.122 233.144 262.648 233.418L262.641 233.411ZM256.421 233.999L256.386 234.026L256.438 234.04L256.425 233.999L256.421 233.999Z" fill="url(#paint28_linear_675_602)"/>
<path d="M262.641 233.411C261.795 234.758 260.945 236.106 260.098 237.453C256.819 242.667 254.022 248.093 251.376 253.583C247.218 262.199 243.564 270.99 240.122 279.858C239.76 280.789 239.431 281.729 239.047 282.658C239.171 280.546 239.344 278.447 239.823 276.387C239.967 275.77 240.053 275.138 240.16 274.516C240.932 269.872 241.989 265.289 243.213 260.734C244.953 254.256 247.13 247.914 250.001 241.78C252.042 237.417 254.533 233.265 257.411 229.298C258.516 227.776 259.547 226.21 260.868 224.817C260.95 224.882 261.032 224.949 261.113 225.017L261.107 225.006C261.128 225.873 261.538 226.683 261.733 227.527C262.481 230.7 262.211 231.24 258.996 232.788C258.237 233.154 257.472 233.509 256.714 233.872C257.258 233.903 257.737 233.803 258.226 233.721C259.681 233.485 261.122 233.144 262.648 233.418L262.641 233.411ZM256.421 233.999L256.386 234.026L256.438 234.04L256.425 233.999L256.421 233.999Z" fill="black" fill-opacity="0.3"/>
<path d="M293.97 197.531C290.7 200.845 287.402 204.141 284.246 207.541C280.795 211.257 277.371 214.993 274.121 218.846C271.392 222.083 268.674 225.324 266.172 228.703C265.901 229.065 261.434 235.383 261.171 235.75C260.545 235.678 255.783 237.924 255.432 237.545C254.359 236.395 261.314 226.435 260.6 225.099C260.606 225.09 261.085 224.5 261.606 223.86C262.866 222.341 264.047 220.843 265.345 219.382C268.551 215.777 272.096 212.431 275.848 209.251C280.006 205.728 284.551 202.605 289.358 199.763C290.522 199.078 291.761 198.481 292.976 197.865C293.276 197.713 293.579 197.516 293.973 197.535L293.966 197.527L293.97 197.531Z" fill="url(#paint29_linear_675_602)"/>
<path d="M293.97 197.531C290.7 200.845 287.402 204.141 284.246 207.541C280.795 211.257 277.371 214.993 274.121 218.846C271.392 222.083 268.674 225.324 266.172 228.703C265.901 229.065 261.434 235.383 261.171 235.75C260.545 235.678 255.783 237.924 255.432 237.545C254.359 236.395 261.314 226.435 260.6 225.099C260.606 225.09 261.085 224.5 261.606 223.86C262.866 222.341 264.047 220.843 265.345 219.382C268.551 215.777 272.096 212.431 275.848 209.251C280.006 205.728 284.551 202.605 289.358 199.763C290.522 199.078 291.761 198.481 292.976 197.865C293.276 197.713 293.579 197.516 293.973 197.535L293.966 197.527L293.97 197.531Z" fill="black" fill-opacity="0.3"/>
<path d="M274.295 214.724C274.304 214.71 274.317 214.694 274.327 214.679C274.314 214.693 274.301 214.707 274.289 214.717L274.295 214.724Z" fill="url(#paint30_linear_675_602)"/>
<path d="M274.295 214.724C274.304 214.71 274.317 214.694 274.327 214.679C274.314 214.693 274.301 214.707 274.289 214.717L274.295 214.724Z" fill="black" fill-opacity="0.3"/>
<path d="M256.429 233.995L256.444 234.035L256.396 234.022L256.429 233.995Z" fill="url(#paint31_linear_675_602)"/>
<path d="M256.429 233.995L256.444 234.035L256.396 234.022L256.429 233.995Z" fill="black" fill-opacity="0.3"/>
<path d="M263.199 229.732C263.619 230.059 264.063 230.409 264.69 230.39C266.183 230.499 267.472 229.946 268.815 229.575C269.386 229.417 269.891 229.092 270.707 229.065C269.557 229.936 268.468 230.656 267.439 231.434C266.201 232.367 265.847 233.316 266.244 234.376C266.76 235.522 266.949 236.054 267.46 237.236C267.063 237.213 265.481 235.753 264.304 234.925C263.834 234.597 263.351 234.254 262.688 234.356C261.142 234.301 259.794 234.842 258.414 235.283C257.954 235.431 257.503 235.6 256.963 235.645C257.641 235.179 258.319 234.716 258.994 234.246C261.848 232.252 261.842 231.728 260.727 229.004C260.59 228.748 260.391 228.055 260.244 227.552C260.346 227.609 261.928 228.739 263.196 229.728L263.199 229.732Z" fill="url(#paint32_linear_675_602)"/>
<path d="M263.199 229.732C263.619 230.059 264.063 230.409 264.69 230.39C266.183 230.499 267.472 229.946 268.815 229.575C269.386 229.417 269.891 229.092 270.707 229.065C269.557 229.936 268.468 230.656 267.439 231.434C266.201 232.367 265.847 233.316 266.244 234.376C266.76 235.522 266.949 236.054 267.46 237.236C267.063 237.213 265.481 235.753 264.304 234.925C263.834 234.597 263.351 234.254 262.688 234.356C261.142 234.301 259.794 234.842 258.414 235.283C257.954 235.431 257.503 235.6 256.963 235.645C257.641 235.179 258.319 234.716 258.994 234.246C261.848 232.252 261.842 231.728 260.727 229.004C260.59 228.748 260.391 228.055 260.244 227.552C260.346 227.609 261.928 228.739 263.196 229.728L263.199 229.732Z" fill="black" fill-opacity="0.3"/>
</g>
<defs>
<filter id="filter0_f_675_602" x="0" y="0.342773" width="619" height="602" filterUnits="userSpaceOnUse" color-interpolation-filters="sRGB">
<feFlood flood-opacity="0" result="BackgroundImageFix"/>
<feBlend mode="normal" in="SourceGraphic" in2="BackgroundImageFix" result="shape"/>
<feGaussianBlur stdDeviation="100" result="effect1_foregroundBlur_675_602"/>
</filter>
<filter id="filter1_i_675_602" x="120.141" y="352.484" width="64.7168" height="68.7168" filterUnits="userSpaceOnUse" color-interpolation-filters="sRGB">
<feFlood flood-opacity="0" result="BackgroundImageFix"/>
<feBlend mode="normal" in="SourceGraphic" in2="BackgroundImageFix" result="shape"/>
<feColorMatrix in="SourceAlpha" type="matrix" values="0 0 0 0 0 0 0 0 0 0 0 0 0 0 0 0 0 0 127 0" result="hardAlpha"/>
<feOffset dy="4"/>
<feGaussianBlur stdDeviation="12.5"/>
<feComposite in2="hardAlpha" operator="arithmetic" k2="-1" k3="1"/>
<feColorMatrix type="matrix" values="0 0 0 0 0.231373 0 0 0 0 0.533333 0 0 0 0 0.8 0 0 0 0.4 0"/>
<feBlend mode="normal" in2="shape" result="effect1_innerShadow_675_602"/>
</filter>
<filter id="filter2_i_675_602" x="407.975" y="385.501" width="36.8438" height="40.8452" filterUnits="userSpaceOnUse" color-interpolation-filters="sRGB">
<feFlood flood-opacity="0" result="BackgroundImageFix"/>
<feBlend mode="normal" in="SourceGraphic" in2="BackgroundImageFix" result="shape"/>
<feColorMatrix in="SourceAlpha" type="matrix" values="0 0 0 0 0 0 0 0 0 0 0 0 0 0 0 0 0 0 127 0" result="hardAlpha"/>
<feOffset dy="4"/>
<feGaussianBlur stdDeviation="12.5"/>
<feComposite in2="hardAlpha" operator="arithmetic" k2="-1" k3="1"/>
<feColorMatrix type="matrix" values="0 0 0 0 0.231373 0 0 0 0 0.533333 0 0 0 0 0.8 0 0 0 0.4 0"/>
<feBlend mode="normal" in2="shape" result="effect1_innerShadow_675_602"/>
</filter>
<filter id="filter3_i_675_602" x="184.123" y="131.646" width="38.5684" height="42.5674" filterUnits="userSpaceOnUse" color-interpolation-filters="sRGB">
<feFlood flood-opacity="0" result="BackgroundImageFix"/>
<feBlend mode="normal" in="SourceGraphic" in2="BackgroundImageFix" result="shape"/>
<feColorMatrix in="SourceAlpha" type="matrix" values="0 0 0 0 0 0 0 0 0 0 0 0 0 0 0 0 0 0 127 0" result="hardAlpha"/>
<feOffset dy="4"/>
<feGaussianBlur stdDeviation="12.5"/>
<feComposite in2="hardAlpha" operator="arithmetic" k2="-1" k3="1"/>
<feColorMatrix type="matrix" values="0 0 0 0 0.231373 0 0 0 0 0.533333 0 0 0 0 0.8 0 0 0 0.4 0"/>
<feBlend mode="normal" in2="shape" result="effect1_innerShadow_675_602"/>
</filter>
<filter id="filter4_i_675_602" x="405.025" y="225.369" width="27.998" height="31.9966" filterUnits="userSpaceOnUse" color-interpolation-filters="sRGB">
<feFlood flood-opacity="0" result="BackgroundImageFix"/>
<feBlend mode="normal" in="SourceGraphic" in2="BackgroundImageFix" result="shape"/>
<feColorMatrix in="SourceAlpha" type="matrix" values="0 0 0 0 0 0 0 0 0 0 0 0 0 0 0 0 0 0 127 0" result="hardAlpha"/>
<feOffset dy="4"/>
<feGaussianBlur stdDeviation="12.5"/>
<feComposite in2="hardAlpha" operator="arithmetic" k2="-1" k3="1"/>
<feColorMatrix type="matrix" values="0 0 0 0 0.231373 0 0 0 0 0.533333 0 0 0 0 0.8 0 0 0 0.4 0"/>
<feBlend mode="normal" in2="shape" result="effect1_innerShadow_675_602"/>
</filter>
<filter id="filter5_i_675_602" x="208.488" y="195.261" width="132.264" height="177.353" filterUnits="userSpaceOnUse" color-interpolation-filters="sRGB">
<feFlood flood-opacity="0" result="BackgroundImageFix"/>
<feBlend mode="normal" in="SourceGraphic" in2="BackgroundImageFix" result="shape"/>
<feColorMatrix in="SourceAlpha" type="matrix" values="0 0 0 0 0 0 0 0 0 0 0 0 0 0 0 0 0 0 127 0" result="hardAlpha"/>
<feOffset dy="4"/>
<feGaussianBlur stdDeviation="12.5"/>
<feComposite in2="hardAlpha" operator="arithmetic" k2="-1" k3="1"/>
<feColorMatrix type="matrix" values="0 0 0 0 0.231373 0 0 0 0 0.533333 0 0 0 0 0.8 0 0 0 0.4 0"/>
<feBlend mode="normal" in2="shape" result="effect1_innerShadow_675_602"/>
</filter>
<linearGradient id="paint0_linear_675_602" x1="316.273" y1="200.343" x2="316.273" y2="361.572" gradientUnits="userSpaceOnUse">
<stop stop-color="#3684C9"/>
<stop offset="1" stop-color="#00427C"/>
</linearGradient>
<linearGradient id="paint1_linear_675_602" x1="145.831" y1="351.948" x2="159.672" y2="403.603" gradientUnits="userSpaceOnUse">
<stop stop-color="#2A6AA2"/>
<stop offset="1" stop-color="#00427C"/>
</linearGradient>
<linearGradient id="paint2_linear_675_602" x1="438.722" y1="386.193" x2="420.866" y2="415.601" gradientUnits="userSpaceOnUse">
<stop stop-color="#2A6AA2"/>
<stop offset="1" stop-color="#00427C"/>
</linearGradient>
<linearGradient id="paint3_linear_675_602" x1="214.246" y1="132.243" x2="198.848" y2="163.026" gradientUnits="userSpaceOnUse">
<stop stop-color="#2A6AA2"/>
<stop offset="1" stop-color="#00427C"/>
</linearGradient>
<linearGradient id="paint4_linear_675_602" x1="411.864" y1="224.872" x2="424.677" y2="247.218" gradientUnits="userSpaceOnUse">
<stop stop-color="#2A6AA2"/>
<stop offset="1" stop-color="#00427C"/>
</linearGradient>
<linearGradient id="paint5_linear_675_602" x1="329.135" y1="200.222" x2="309.638" y2="332.427" gradientUnits="userSpaceOnUse">
<stop stop-color="#2A6AA2"/>
<stop offset="1" stop-color="#00427C"/>
</linearGradient>
<linearGradient id="paint6_linear_675_602" x1="265.822" y1="190.882" x2="246.326" y2="323.083" gradientUnits="userSpaceOnUse">
<stop stop-color="#2A6AA2"/>
<stop offset="1" stop-color="#00427C"/>
</linearGradient>
<linearGradient id="paint7_linear_675_602" x1="258.86" y1="311.737" x2="253.402" y2="348.748" gradientUnits="userSpaceOnUse">
<stop stop-color="#2A6AA2"/>
<stop offset="1" stop-color="#00427C"/>
</linearGradient>
<linearGradient id="paint8_linear_675_602" x1="298.574" y1="317.597" x2="293.119" y2="354.592" gradientUnits="userSpaceOnUse">
<stop stop-color="#2A6AA2"/>
<stop offset="1" stop-color="#00427C"/>
</linearGradient>
<linearGradient id="paint9_linear_675_602" x1="225.188" y1="331.857" x2="222.821" y2="347.911" gradientUnits="userSpaceOnUse">
<stop stop-color="#2A6AA2"/>
<stop offset="1" stop-color="#00427C"/>
</linearGradient>
<linearGradient id="paint10_linear_675_602" x1="324.917" y1="346.605" x2="322.556" y2="362.615" gradientUnits="userSpaceOnUse">
<stop stop-color="#2A6AA2"/>
<stop offset="1" stop-color="#00427C"/>
</linearGradient>
<linearGradient id="paint11_linear_675_602" x1="230.873" y1="285.044" x2="223.972" y2="331.837" gradientUnits="userSpaceOnUse">
<stop stop-color="#2A6AA2"/>
<stop offset="1" stop-color="#00427C"/>
</linearGradient>
<linearGradient id="paint12_linear_675_602" x1="220.049" y1="297.913" x2="214.199" y2="337.58" gradientUnits="userSpaceOnUse">
<stop stop-color="#2A6AA2"/>
<stop offset="1" stop-color="#00427C"/>
</linearGradient>
<linearGradient id="paint13_linear_675_602" x1="256.246" y1="224.135" x2="249.212" y2="271.832" gradientUnits="userSpaceOnUse">
<stop stop-color="#2A6AA2"/>
<stop offset="1" stop-color="#00427C"/>
</linearGradient>
<linearGradient id="paint14_linear_675_602" x1="280.508" y1="195.549" x2="276.305" y2="224.053" gradientUnits="userSpaceOnUse">
<stop stop-color="#2A6AA2"/>
<stop offset="1" stop-color="#00427C"/>
</linearGradient>
<linearGradient id="paint15_linear_675_602" x1="274.312" y1="214.677" x2="274.306" y2="214.716" gradientUnits="userSpaceOnUse">
<stop stop-color="#2A6AA2"/>
<stop offset="1" stop-color="#00427C"/>
</linearGradient>
<linearGradient id="paint16_linear_675_602" x1="256.427" y1="233.995" x2="256.422" y2="234.024" gradientUnits="userSpaceOnUse">
<stop stop-color="#2A6AA2"/>
<stop offset="1" stop-color="#00427C"/>
</linearGradient>
<linearGradient id="paint17_linear_675_602" x1="258.86" y1="311.737" x2="256.993" y2="324.395" gradientUnits="userSpaceOnUse">
<stop stop-color="#2A6AA2"/>
<stop offset="1" stop-color="#00427C"/>
</linearGradient>
<linearGradient id="paint18_linear_675_602" x1="256.762" y1="327.631" x2="255.515" y2="336.082" gradientUnits="userSpaceOnUse">
<stop stop-color="#2A6AA2"/>
<stop offset="1" stop-color="#00427C"/>
</linearGradient>
<linearGradient id="paint19_linear_675_602" x1="257.282" y1="336.112" x2="254.659" y2="353.899" gradientUnits="userSpaceOnUse">
<stop stop-color="#2A6AA2"/>
<stop offset="1" stop-color="#00427C"/>
</linearGradient>
<linearGradient id="paint20_linear_675_602" x1="267.004" y1="324.329" x2="265.481" y2="334.654" gradientUnits="userSpaceOnUse">
<stop stop-color="#2A6AA2"/>
<stop offset="1" stop-color="#00427C"/>
</linearGradient>
<linearGradient id="paint21_linear_675_602" x1="285.842" y1="327.34" x2="284.33" y2="337.591" gradientUnits="userSpaceOnUse">
<stop stop-color="#2A6AA2"/>
<stop offset="1" stop-color="#00427C"/>
</linearGradient>
<linearGradient id="paint22_linear_675_602" x1="292.178" y1="341.402" x2="289.573" y2="359.067" gradientUnits="userSpaceOnUse">
<stop stop-color="#2A6AA2"/>
<stop offset="1" stop-color="#00427C"/>
</linearGradient>
<linearGradient id="paint23_linear_675_602" x1="294.799" y1="333.218" x2="293.605" y2="341.311" gradientUnits="userSpaceOnUse">
<stop stop-color="#2A6AA2"/>
<stop offset="1" stop-color="#00427C"/>
</linearGradient>
<linearGradient id="paint24_linear_675_602" x1="225.188" y1="331.857" x2="222.821" y2="347.911" gradientUnits="userSpaceOnUse">
<stop stop-color="#2A6AA2"/>
<stop offset="1" stop-color="#00427C"/>
</linearGradient>
<linearGradient id="paint25_linear_675_602" x1="324.917" y1="346.605" x2="322.556" y2="362.615" gradientUnits="userSpaceOnUse">
<stop stop-color="#2A6AA2"/>
<stop offset="1" stop-color="#00427C"/>
</linearGradient>
<linearGradient id="paint26_linear_675_602" x1="230.877" y1="285.044" x2="223.976" y2="331.836" gradientUnits="userSpaceOnUse">
<stop stop-color="#2A6AA2"/>
<stop offset="1" stop-color="#00427C"/>
</linearGradient>
<linearGradient id="paint27_linear_675_602" x1="220.049" y1="297.913" x2="214.199" y2="337.581" gradientUnits="userSpaceOnUse">
<stop stop-color="#2A6AA2"/>
<stop offset="1" stop-color="#00427C"/>
</linearGradient>
<linearGradient id="paint28_linear_675_602" x1="256.244" y1="224.135" x2="249.21" y2="271.833" gradientUnits="userSpaceOnUse">
<stop stop-color="#2A6AA2"/>
<stop offset="1" stop-color="#00427C"/>
</linearGradient>
<linearGradient id="paint29_linear_675_602" x1="278.904" y1="195.306" x2="273.637" y2="231.026" gradientUnits="userSpaceOnUse">
<stop stop-color="#2A6AA2"/>
<stop offset="1" stop-color="#00427C"/>
</linearGradient>
<linearGradient id="paint30_linear_675_602" x1="274.312" y1="214.677" x2="274.306" y2="214.716" gradientUnits="userSpaceOnUse">
<stop stop-color="#2A6AA2"/>
<stop offset="1" stop-color="#00427C"/>
</linearGradient>
<linearGradient id="paint31_linear_675_602" x1="256.427" y1="233.995" x2="256.422" y2="234.024" gradientUnits="userSpaceOnUse">
<stop stop-color="#2A6AA2"/>
<stop offset="1" stop-color="#00427C"/>
</linearGradient>
<linearGradient id="paint32_linear_675_602" x1="264.843" y1="228.201" x2="263.846" y2="234.958" gradientUnits="userSpaceOnUse">
<stop stop-color="#2A6AA2"/>
<stop offset="1" stop-color="#00427C"/>
</linearGradient>
</defs>
</svg>
