<svg width="1520" height="992" viewBox="0 0 1520 992" fill="none" xmlns="http://www.w3.org/2000/svg">
<g opacity="0.4" filter="url(#filter0_f_638_2097)">
<path d="M904.178 316.722C1063.54 357.789 1249.35 367.241 1267.08 514.567C1287.25 682.154 1042.52 720.734 855.11 737.304C582.004 761.451 175.282 625.719 264.362 393.879C346.214 180.853 661.447 254.17 904.178 316.722Z" fill="url(#paint0_linear_638_2097)"/>
<path d="M904.178 316.722C1063.54 357.789 1249.35 367.241 1267.08 514.567C1287.25 682.154 1042.52 720.734 855.11 737.304C582.004 761.451 175.282 625.719 264.362 393.879C346.214 180.853 661.447 254.17 904.178 316.722Z" stroke="#242429" stroke-width="2" stroke-linecap="round"/>
</g>
<defs>
<filter id="filter0_f_638_2097" x="0.857422" y="0.953613" width="1518.4" height="990.114" filterUnits="userSpaceOnUse" color-interpolation-filters="sRGB">
<feFlood flood-opacity="0" result="BackgroundImageFix"/>
<feBlend mode="normal" in="SourceGraphic" in2="BackgroundImageFix" result="shape"/>
<feGaussianBlur stdDeviation="125" result="effect1_foregroundBlur_638_2097"/>
</filter>
<linearGradient id="paint0_linear_638_2097" x1="1268.49" y1="524.077" x2="456.258" y2="506.619" gradientUnits="userSpaceOnUse">
<stop stop-color="#2A6AA2"/>
<stop offset="1" stop-color="#00427C"/>
</linearGradient>
</defs>
</svg>
