<svg width="2054" height="1167" viewBox="0 0 2054 1167" fill="none" xmlns="http://www.w3.org/2000/svg">
<g opacity="0.5" filter="url(#filter0_f_572_1154)">
<path d="M527.65 454C490.205 364.935 423.032 278.4 330.15 305C228.565 334.093 243.091 465.969 268.65 568.5C281.388 619.595 281.523 668.293 330.15 688.5C359 700.488 381.693 675.606 410.15 688.5C471.092 716.113 347.622 859.5 420.65 859.5H607.65C680.678 859.5 607.972 796.231 703.65 814L948.65 859.5C948.65 859.5 1077.38 905.295 1154.15 880.5C1223.1 858.23 1227.24 778.397 1298.15 763.5C1404.14 741.233 1443.2 964.721 1535.15 907.5C1579.3 880.027 1573.97 835.538 1607.15 795.5C1652.91 740.28 1708.77 736.702 1746.15 675.5C1791.86 600.655 1776.95 541.48 1783.15 454C1787.79 388.556 1825.72 335.926 1783.15 286C1729.6 223.19 1636.86 253.131 1572.65 305C1503.39 360.95 1573.08 457.136 1516.65 526C1448.61 609.032 1348.67 677.206 1258.15 619.5C1219.29 594.727 1222.38 554.486 1186.15 526C1143.91 492.784 1082.17 439.181 1058.15 475.5L996.65 568.5C972.633 604.819 875.604 573.092 804.65 547.5C751.657 528.386 728.466 503.618 679.65 475.5C630.835 447.382 679.65 568.5 679.65 568.5C679.65 568.5 583.759 604.606 546.15 568.5C513.475 537.131 545.205 495.755 527.65 454Z" fill="#00427C"/>
</g>
<defs>
<filter id="filter0_f_572_1154" x="0" y="0.615479" width="2053.14" height="1166.29" filterUnits="userSpaceOnUse" color-interpolation-filters="sRGB">
<feFlood flood-opacity="0" result="BackgroundImageFix"/>
<feBlend mode="normal" in="SourceGraphic" in2="BackgroundImageFix" result="shape"/>
<feGaussianBlur stdDeviation="125" result="effect1_foregroundBlur_572_1154"/>
</filter>
</defs>
</svg>
