<svg width="1643" height="975" viewBox="0 0 1643 975" fill="none" xmlns="http://www.w3.org/2000/svg">
<path d="M245 840.5V613.5H287V667H301V187.5H248.5V84H76V827H122.5V840.5H245Z" fill="#D9D9D9" stroke="black" stroke-width="3"/>
<path d="M177.823 485.747C175.961 485.931 174.514 486.724 173.483 488.124C172.452 489.525 171.937 491.425 171.937 493.826C171.937 495.457 172.168 496.834 172.629 497.957C173.076 499.081 173.699 499.942 174.499 500.543C175.299 501.127 176.207 501.42 177.223 501.42C178.069 501.451 178.808 501.274 179.439 500.889C180.069 500.489 180.616 499.942 181.077 499.25C181.524 498.558 181.916 497.757 182.255 496.849C182.578 495.942 182.855 494.972 183.086 493.941L184.101 489.694C184.563 487.632 185.178 485.739 185.948 484.016C186.717 482.292 187.664 480.799 188.787 479.538C189.91 478.276 191.234 477.299 192.757 476.606C194.281 475.898 196.027 475.537 197.997 475.521C200.89 475.537 203.398 476.275 205.522 477.737C207.63 479.184 209.269 481.277 210.438 484.016C211.592 486.739 212.169 490.025 212.169 493.872C212.169 497.688 211.585 501.012 210.415 503.843C209.246 506.659 207.514 508.86 205.222 510.445C202.913 512.015 200.059 512.838 196.658 512.915L196.658 503.243C198.243 503.136 199.566 502.682 200.628 501.881C201.675 501.066 202.467 499.981 203.006 498.627C203.529 497.257 203.79 495.711 203.79 493.987C203.79 492.295 203.544 490.825 203.052 489.578C202.559 488.317 201.875 487.339 200.998 486.647C200.12 485.955 199.112 485.608 197.974 485.608C196.912 485.608 196.019 485.924 195.296 486.555C194.573 487.17 193.957 488.078 193.45 489.278C192.942 490.463 192.48 491.917 192.065 493.641L190.772 498.788C189.803 502.774 188.287 505.921 186.225 508.229C184.163 510.537 181.385 511.684 177.892 511.668C175.03 511.684 172.529 510.922 170.39 509.383C168.251 507.829 166.582 505.698 165.381 502.989C164.181 500.281 163.581 497.203 163.581 493.756C163.581 490.248 164.181 487.186 165.381 484.57C166.582 481.938 168.251 479.892 170.39 478.43C172.529 476.968 175.007 476.214 177.823 476.168L177.823 485.747ZM176.045 450.125L183.432 450.125L183.432 471.476L176.045 471.476L176.045 450.125ZM167.551 466.629L167.551 456.796L200.605 456.796C201.513 456.796 202.221 456.657 202.729 456.38C203.221 456.103 203.567 455.719 203.767 455.226C203.967 454.718 204.067 454.134 204.067 453.472C204.067 453.01 204.029 452.549 203.952 452.087C203.86 451.625 203.79 451.271 203.744 451.025L211.061 449.479C211.215 449.971 211.392 450.663 211.592 451.556C211.808 452.449 211.939 453.533 211.985 454.811C212.077 457.18 211.762 459.258 211.038 461.043C210.315 462.813 209.192 464.19 207.668 465.175C206.145 466.159 204.221 466.644 201.898 466.629L167.551 466.629ZM212.169 433.609C212.169 435.872 211.777 437.887 210.992 439.657C210.192 441.427 209.015 442.827 207.461 443.858C205.891 444.874 203.937 445.381 201.598 445.381C199.628 445.381 197.974 445.02 196.635 444.297C195.296 443.573 194.219 442.589 193.403 441.342C192.588 440.096 191.972 438.68 191.557 437.095C191.141 435.495 190.849 433.817 190.68 432.063C190.464 430.001 190.264 428.339 190.08 427.077C189.879 425.815 189.587 424.9 189.202 424.33C188.818 423.761 188.248 423.476 187.494 423.476L187.356 423.476C185.894 423.476 184.763 423.938 183.963 424.861C183.163 425.769 182.762 427.062 182.762 428.739C182.762 430.509 183.155 431.917 183.94 432.963C184.709 434.01 185.679 434.702 186.848 435.041L186.109 444.135C183.955 443.673 182.093 442.765 180.523 441.411C178.938 440.057 177.723 438.311 176.876 436.172C176.015 434.017 175.584 431.524 175.584 428.693C175.584 426.723 175.815 424.838 176.276 423.038C176.738 421.222 177.453 419.614 178.423 418.214C179.392 416.798 180.639 415.682 182.162 414.867C183.67 414.051 185.478 413.643 187.587 413.643L211.5 413.643L211.5 422.968L206.583 422.968L206.583 423.245C207.691 423.815 208.669 424.577 209.515 425.531C210.346 426.485 211 427.631 211.477 428.97C211.939 430.309 212.169 431.855 212.169 433.609ZM205.383 430.793C205.383 429.347 205.098 428.07 204.529 426.962C203.944 425.854 203.16 424.984 202.175 424.353C201.19 423.723 200.074 423.407 198.828 423.407L195.065 423.407C195.265 423.715 195.45 424.138 195.619 424.677C195.773 425.2 195.919 425.792 196.058 426.454C196.181 427.116 196.296 427.777 196.404 428.439C196.496 429.101 196.581 429.701 196.658 430.239C196.827 431.394 197.097 432.401 197.466 433.263C197.835 434.125 198.335 434.794 198.966 435.271C199.582 435.748 200.351 435.987 201.274 435.987C202.613 435.987 203.637 435.502 204.344 434.533C205.037 433.548 205.383 432.301 205.383 430.793ZM225.534 390.041C225.534 393.227 225.096 395.958 224.218 398.236C223.357 400.498 222.179 402.298 220.687 403.637C219.194 404.976 217.517 405.845 215.655 406.245L214.431 397.151C215.139 396.874 215.801 396.435 216.417 395.835C217.032 395.235 217.524 394.442 217.894 393.458C218.279 392.457 218.471 391.242 218.471 389.811C218.471 387.672 217.948 385.91 216.901 384.525C215.87 383.124 214.139 382.424 211.708 382.424L205.222 382.424L205.222 382.84C206.206 383.271 207.137 383.917 208.015 384.779C208.892 385.64 209.607 386.748 210.161 388.103C210.715 389.457 210.992 391.072 210.992 392.95C210.992 395.612 210.377 398.036 209.146 400.221C207.899 402.391 205.999 404.122 203.444 405.414C200.874 406.692 197.627 407.33 193.703 407.33C189.687 407.33 186.332 406.676 183.64 405.368C180.947 404.06 178.931 402.321 177.592 400.152C176.253 397.966 175.584 395.574 175.584 392.973C175.584 390.988 175.922 389.326 176.599 387.987C177.261 386.648 178.092 385.571 179.092 384.756C180.077 383.925 181.047 383.286 182.001 382.84L182.001 382.47L176.045 382.47L176.045 372.707L211.846 372.707C214.862 372.707 217.386 373.445 219.417 374.922C221.449 376.4 222.972 378.446 223.988 381.062C225.019 383.663 225.534 386.656 225.534 390.041ZM203.606 389.834C203.606 388.249 203.213 386.91 202.429 385.817C201.628 384.709 200.49 383.863 199.012 383.278C197.52 382.678 195.735 382.378 193.657 382.378C191.58 382.378 189.779 382.67 188.256 383.255C186.717 383.84 185.525 384.686 184.678 385.794C183.832 386.902 183.409 388.249 183.409 389.834C183.409 391.449 183.847 392.811 184.724 393.919C185.586 395.027 186.786 395.866 188.325 396.435C189.864 397.005 191.641 397.289 193.657 397.289C195.704 397.289 197.474 397.005 198.966 396.435C200.444 395.851 201.59 395.012 202.406 393.919C203.206 392.811 203.606 391.449 203.606 389.834ZM212.192 348.724C212.192 352.371 211.454 355.51 209.977 358.142C208.484 360.758 206.376 362.773 203.652 364.189C200.913 365.605 197.674 366.313 193.934 366.313C190.287 366.313 187.087 365.605 184.332 364.189C181.578 362.773 179.431 360.781 177.892 358.211C176.353 355.626 175.584 352.594 175.584 349.116C175.584 346.777 175.961 344.6 176.715 342.584C177.453 340.553 178.569 338.783 180.062 337.275C181.554 335.752 183.432 334.567 185.694 333.72C187.941 332.874 190.572 332.451 193.588 332.451L196.289 332.451L196.289 362.389L190.195 362.389L190.195 341.707C188.779 341.707 187.525 342.015 186.433 342.63C185.34 343.246 184.486 344.1 183.87 345.192C183.239 346.27 182.924 347.524 182.924 348.955C182.924 350.447 183.27 351.771 183.963 352.925C184.64 354.064 185.555 354.956 186.71 355.603C187.848 356.249 189.118 356.58 190.518 356.595L196.312 356.595C198.066 356.595 199.582 356.272 200.859 355.626C202.136 354.964 203.121 354.033 203.814 352.833C204.506 351.632 204.852 350.209 204.852 348.562C204.852 347.47 204.698 346.47 204.391 345.562C204.083 344.654 203.621 343.877 203.006 343.23C202.39 342.584 201.636 342.092 200.744 341.753L201.344 332.659C203.529 333.12 205.437 334.067 207.068 335.498C208.684 336.913 209.946 338.745 210.854 340.991C211.746 343.223 212.192 345.8 212.192 348.724Z" fill="black"/>
<path d="M248 624V616H284V624M248 624H284M248 624V632.5M284 624V632.5M284 632.5H248M284 632.5V640M248 632.5V640M248 640H284M248 640V648M284 640V648M284 648H248M284 648V656.5M248 648V656.5M248 656.5H284M248 656.5V665M284 656.5V665M284 665V686H248V665M284 665H248" stroke="#A4A4A4" stroke-width="3"/>
<path d="M250.5 114V8H1467.5V114H1234.5H941.5M313 114H601.5M630 114H703H882.5" stroke="black" stroke-width="5"/>
<path d="M653 117.5H250V184H304.5V744H653V117.5Z" fill="white" stroke="#A4A4A4" stroke-width="3"/>
<path d="M440.732 699.457C440.647 698.597 440.281 697.93 439.635 697.454C438.989 696.978 438.112 696.74 437.004 696.74C436.251 696.74 435.615 696.847 435.097 697.06C434.578 697.266 434.18 697.553 433.903 697.923C433.634 698.292 433.499 698.711 433.499 699.18C433.484 699.57 433.566 699.911 433.744 700.202C433.928 700.494 434.18 700.746 434.5 700.959C434.82 701.165 435.189 701.346 435.608 701.502C436.027 701.651 436.474 701.779 436.95 701.886L438.911 702.354C439.862 702.567 440.736 702.852 441.531 703.207C442.327 703.562 443.016 703.999 443.598 704.517C444.18 705.036 444.631 705.646 444.951 706.349C445.278 707.053 445.445 707.859 445.452 708.768C445.445 710.103 445.104 711.261 444.429 712.241C443.761 713.214 442.795 713.97 441.531 714.51C440.274 715.043 438.758 715.309 436.982 715.309C435.221 715.309 433.687 715.039 432.38 714.499C431.08 713.96 430.065 713.161 429.333 712.102C428.609 711.037 428.229 709.719 428.193 708.15H432.657C432.707 708.881 432.916 709.492 433.286 709.982C433.662 710.465 434.163 710.831 434.788 711.08C435.42 711.321 436.134 711.442 436.929 711.442C437.71 711.442 438.388 711.328 438.964 711.101C439.546 710.874 439.997 710.558 440.317 710.153C440.636 709.748 440.796 709.283 440.796 708.757C440.796 708.267 440.651 707.855 440.359 707.521C440.075 707.187 439.656 706.903 439.102 706.669C438.555 706.435 437.884 706.222 437.089 706.03L434.713 705.433C432.874 704.986 431.421 704.286 430.356 703.335C429.29 702.383 428.761 701.101 428.768 699.489C428.761 698.168 429.113 697.013 429.823 696.026C430.54 695.039 431.524 694.268 432.774 693.714C434.024 693.161 435.445 692.884 437.036 692.884C438.655 692.884 440.068 693.161 441.276 693.714C442.49 694.268 443.435 695.039 444.109 696.026C444.784 697.013 445.132 698.157 445.153 699.457H440.732ZM455.927 715.32C454.243 715.32 452.795 714.979 451.58 714.297C450.373 713.608 449.442 712.635 448.789 711.378C448.135 710.114 447.809 708.619 447.809 706.893C447.809 705.21 448.135 703.732 448.789 702.461C449.442 701.19 450.362 700.199 451.548 699.489C452.741 698.778 454.14 698.423 455.746 698.423C456.825 698.423 457.83 698.597 458.76 698.945C459.698 699.286 460.515 699.801 461.211 700.49C461.914 701.179 462.461 702.045 462.851 703.089C463.242 704.126 463.437 705.341 463.437 706.733V707.979H449.62V705.167H459.165C459.165 704.513 459.023 703.935 458.739 703.43C458.455 702.926 458.061 702.532 457.557 702.248C457.059 701.957 456.481 701.811 455.82 701.811C455.131 701.811 454.52 701.971 453.988 702.29C453.462 702.603 453.05 703.026 452.752 703.558C452.454 704.084 452.301 704.67 452.294 705.316V707.99C452.294 708.8 452.443 709.499 452.741 710.089C453.047 710.678 453.476 711.133 454.03 711.452C454.584 711.772 455.241 711.932 456.001 711.932C456.506 711.932 456.967 711.861 457.386 711.719C457.805 711.577 458.164 711.364 458.462 711.08C458.76 710.795 458.988 710.447 459.144 710.036L463.341 710.312C463.128 711.321 462.692 712.202 462.031 712.955C461.378 713.7 460.532 714.283 459.496 714.702C458.466 715.114 457.276 715.32 455.927 715.32ZM471.065 715.309C470.021 715.309 469.091 715.128 468.274 714.766C467.457 714.396 466.811 713.853 466.335 713.136C465.866 712.411 465.632 711.509 465.632 710.43C465.632 709.521 465.799 708.757 466.133 708.139C466.466 707.521 466.921 707.024 467.496 706.648C468.072 706.271 468.725 705.987 469.456 705.795C470.195 705.604 470.969 705.469 471.779 705.391C472.731 705.291 473.498 705.199 474.08 705.114C474.662 705.021 475.085 704.886 475.348 704.709C475.611 704.531 475.742 704.268 475.742 703.92V703.857C475.742 703.182 475.529 702.66 475.103 702.29C474.684 701.921 474.087 701.737 473.313 701.737C472.496 701.737 471.846 701.918 471.363 702.28C470.881 702.635 470.561 703.082 470.405 703.622L466.207 703.281C466.42 702.287 466.839 701.428 467.464 700.703C468.089 699.972 468.895 699.411 469.883 699.02C470.877 698.622 472.028 698.423 473.334 698.423C474.243 698.423 475.113 698.53 475.944 698.743C476.782 698.956 477.525 699.286 478.171 699.734C478.824 700.181 479.339 700.756 479.716 701.46C480.092 702.156 480.28 702.99 480.28 703.963V715H475.976V712.731H475.849C475.586 713.242 475.234 713.693 474.794 714.084C474.354 714.467 473.824 714.769 473.206 714.989C472.589 715.202 471.875 715.309 471.065 715.309ZM472.365 712.177C473.032 712.177 473.622 712.045 474.133 711.783C474.645 711.513 475.046 711.151 475.337 710.696C475.628 710.241 475.774 709.727 475.774 709.151V707.415C475.632 707.507 475.437 707.592 475.188 707.67C474.947 707.741 474.673 707.809 474.368 707.873C474.062 707.93 473.757 707.983 473.452 708.033C473.146 708.075 472.869 708.114 472.621 708.15C472.088 708.228 471.623 708.352 471.225 708.523C470.827 708.693 470.518 708.924 470.298 709.215C470.078 709.499 469.968 709.854 469.968 710.281C469.968 710.898 470.192 711.371 470.639 711.697C471.094 712.017 471.669 712.177 472.365 712.177ZM492.505 698.636V702.045H482.651V698.636H492.505ZM484.888 694.716H489.426V709.972C489.426 710.391 489.49 710.717 489.618 710.952C489.746 711.179 489.923 711.339 490.151 711.431C490.385 711.523 490.655 711.57 490.96 711.57C491.173 711.57 491.387 711.552 491.6 711.516C491.813 711.474 491.976 711.442 492.09 711.42L492.803 714.798C492.576 714.869 492.257 714.95 491.845 715.043C491.433 715.142 490.932 715.202 490.343 715.224C489.249 715.266 488.29 715.121 487.466 714.787C486.649 714.453 486.014 713.935 485.559 713.232C485.105 712.528 484.881 711.641 484.888 710.568V694.716ZM495.461 715V698.636H500V715H495.461ZM497.741 696.527C497.067 696.527 496.488 696.303 496.005 695.856C495.529 695.401 495.291 694.858 495.291 694.226C495.291 693.601 495.529 693.065 496.005 692.617C496.488 692.163 497.067 691.935 497.741 691.935C498.416 691.935 498.991 692.163 499.467 692.617C499.95 693.065 500.192 693.601 500.192 694.226C500.192 694.858 499.95 695.401 499.467 695.856C498.991 696.303 498.416 696.527 497.741 696.527ZM508.174 705.54V715H503.635V698.636H507.961V701.523H508.152C508.515 700.572 509.122 699.819 509.974 699.265C510.826 698.704 511.86 698.423 513.074 698.423C514.211 698.423 515.201 698.672 516.047 699.169C516.892 699.666 517.549 700.376 518.017 701.3C518.486 702.216 518.721 703.31 518.721 704.581V715H514.182V705.391C514.189 704.389 513.934 703.608 513.415 703.047C512.897 702.479 512.183 702.195 511.274 702.195C510.663 702.195 510.123 702.326 509.654 702.589C509.193 702.852 508.831 703.235 508.568 703.739C508.312 704.237 508.181 704.837 508.174 705.54ZM529.67 721.477C528.199 721.477 526.939 721.275 525.888 720.87C524.844 720.472 524.013 719.929 523.395 719.24C522.777 718.551 522.376 717.777 522.191 716.918L526.388 716.353C526.516 716.68 526.719 716.985 526.996 717.269C527.273 717.553 527.638 717.781 528.093 717.951C528.555 718.129 529.116 718.217 529.776 718.217C530.763 718.217 531.577 717.976 532.216 717.493C532.862 717.017 533.185 716.218 533.185 715.096V712.102H532.993C532.795 712.557 532.496 712.987 532.099 713.391C531.701 713.796 531.189 714.126 530.564 714.382C529.939 714.638 529.194 714.766 528.327 714.766C527.099 714.766 525.98 714.482 524.971 713.913C523.97 713.338 523.171 712.461 522.574 711.282C521.985 710.096 521.69 708.597 521.69 706.786C521.69 704.933 521.992 703.384 522.596 702.141C523.199 700.898 524.002 699.968 525.003 699.35C526.012 698.732 527.116 698.423 528.317 698.423C529.233 698.423 530 698.58 530.618 698.892C531.236 699.197 531.733 699.581 532.109 700.043C532.493 700.497 532.787 700.945 532.993 701.385H533.164V698.636H537.67V715.16C537.67 716.552 537.329 717.717 536.648 718.654C535.966 719.592 535.021 720.295 533.814 720.763C532.613 721.239 531.232 721.477 529.67 721.477ZM529.765 711.357C530.497 711.357 531.115 711.175 531.619 710.813C532.131 710.444 532.521 709.918 532.791 709.237C533.068 708.548 533.206 707.724 533.206 706.765C533.206 705.806 533.072 704.975 532.802 704.272C532.532 703.562 532.141 703.011 531.63 702.621C531.118 702.23 530.497 702.035 529.765 702.035C529.02 702.035 528.391 702.237 527.88 702.642C527.368 703.04 526.981 703.594 526.719 704.304C526.456 705.014 526.324 705.835 526.324 706.765C526.324 707.71 526.456 708.526 526.719 709.215C526.988 709.897 527.376 710.426 527.88 710.803C528.391 711.172 529.02 711.357 529.765 711.357Z" fill="black"/>
<path d="M1468 118H656V744H1468V118Z" fill="white" stroke="#A4A4A4" stroke-width="3"/>
<path d="M1143.73 424.457C1143.65 423.597 1143.28 422.93 1142.63 422.454C1141.99 421.978 1141.11 421.74 1140 421.74C1139.25 421.74 1138.62 421.847 1138.1 422.06C1137.58 422.266 1137.18 422.553 1136.9 422.923C1136.63 423.292 1136.5 423.711 1136.5 424.18C1136.48 424.57 1136.57 424.911 1136.74 425.202C1136.93 425.494 1137.18 425.746 1137.5 425.959C1137.82 426.165 1138.19 426.346 1138.61 426.502C1139.03 426.651 1139.47 426.779 1139.95 426.886L1141.91 427.354C1142.86 427.567 1143.74 427.852 1144.53 428.207C1145.33 428.562 1146.02 428.999 1146.6 429.517C1147.18 430.036 1147.63 430.646 1147.95 431.349C1148.28 432.053 1148.44 432.859 1148.45 433.768C1148.44 435.103 1148.1 436.261 1147.43 437.241C1146.76 438.214 1145.8 438.97 1144.53 439.51C1143.27 440.043 1141.76 440.309 1139.98 440.309C1138.22 440.309 1136.69 440.039 1135.38 439.499C1134.08 438.96 1133.06 438.161 1132.33 437.102C1131.61 436.037 1131.23 434.719 1131.19 433.15H1135.66C1135.71 433.881 1135.92 434.492 1136.29 434.982C1136.66 435.465 1137.16 435.831 1137.79 436.08C1138.42 436.321 1139.13 436.442 1139.93 436.442C1140.71 436.442 1141.39 436.328 1141.96 436.101C1142.55 435.874 1143 435.558 1143.32 435.153C1143.64 434.748 1143.8 434.283 1143.8 433.757C1143.8 433.267 1143.65 432.855 1143.36 432.521C1143.08 432.187 1142.66 431.903 1142.1 431.669C1141.56 431.435 1140.88 431.222 1140.09 431.03L1137.71 430.433C1135.87 429.986 1134.42 429.286 1133.36 428.335C1132.29 427.383 1131.76 426.101 1131.77 424.489C1131.76 423.168 1132.11 422.013 1132.82 421.026C1133.54 420.039 1134.52 419.268 1135.77 418.714C1137.02 418.161 1138.44 417.884 1140.04 417.884C1141.65 417.884 1143.07 418.161 1144.28 418.714C1145.49 419.268 1146.43 420.039 1147.11 421.026C1147.78 422.013 1148.13 423.157 1148.15 424.457H1143.73ZM1156.01 430.54V440H1151.47V418.182H1155.88V426.523H1156.07C1156.44 425.558 1157.04 424.801 1157.86 424.254C1158.69 423.7 1159.72 423.423 1160.96 423.423C1162.1 423.423 1163.09 423.672 1163.93 424.169C1164.79 424.659 1165.45 425.366 1165.92 426.289C1166.39 427.205 1166.63 428.303 1166.62 429.581V440H1162.08V430.391C1162.09 429.382 1161.83 428.597 1161.31 428.036C1160.8 427.475 1160.08 427.195 1159.16 427.195C1158.54 427.195 1158 427.326 1157.52 427.589C1157.05 427.852 1156.68 428.235 1156.41 428.739C1156.15 429.237 1156.01 429.837 1156.01 430.54ZM1177.58 440.32C1175.93 440.32 1174.5 439.968 1173.29 439.265C1172.09 438.555 1171.16 437.567 1170.51 436.303C1169.86 435.032 1169.53 433.558 1169.53 431.882C1169.53 430.192 1169.86 428.714 1170.51 427.45C1171.16 426.179 1172.09 425.192 1173.29 424.489C1174.5 423.778 1175.93 423.423 1177.58 423.423C1179.24 423.423 1180.67 423.778 1181.87 424.489C1183.07 425.192 1184 426.179 1184.66 427.45C1185.31 428.714 1185.64 430.192 1185.64 431.882C1185.64 433.558 1185.31 435.032 1184.66 436.303C1184 437.567 1183.07 438.555 1181.87 439.265C1180.67 439.968 1179.24 440.32 1177.58 440.32ZM1177.6 436.804C1178.36 436.804 1178.99 436.591 1179.49 436.165C1179.99 435.732 1180.37 435.142 1180.63 434.396C1180.89 433.651 1181.02 432.802 1181.02 431.85C1181.02 430.898 1180.89 430.05 1180.63 429.304C1180.37 428.558 1179.99 427.969 1179.49 427.536C1178.99 427.102 1178.36 426.886 1177.6 426.886C1176.84 426.886 1176.21 427.102 1175.69 427.536C1175.18 427.969 1174.79 428.558 1174.53 429.304C1174.27 430.05 1174.14 430.898 1174.14 431.85C1174.14 432.802 1174.27 433.651 1174.53 434.396C1174.79 435.142 1175.18 435.732 1175.69 436.165C1176.21 436.591 1176.84 436.804 1177.6 436.804ZM1191.41 440L1186.95 423.636H1191.54L1194.08 434.631H1194.23L1196.87 423.636H1201.38L1204.06 434.567H1204.2L1206.69 423.636H1211.27L1206.83 440H1202.03L1199.22 429.709H1199.01L1196.2 440H1191.41ZM1220.68 440.32C1219 440.32 1217.56 439.964 1216.35 439.254C1215.15 438.537 1214.23 437.543 1213.58 436.271C1212.94 435 1212.63 433.537 1212.63 431.882C1212.63 430.206 1212.95 428.736 1213.59 427.472C1214.25 426.2 1215.17 425.21 1216.38 424.499C1217.58 423.782 1219 423.423 1220.66 423.423C1222.09 423.423 1223.34 423.683 1224.41 424.201C1225.48 424.719 1226.33 425.447 1226.95 426.385C1227.58 427.322 1227.92 428.423 1227.99 429.688H1223.7C1223.58 428.871 1223.26 428.214 1222.75 427.717C1222.23 427.212 1221.56 426.96 1220.73 426.96C1220.03 426.96 1219.41 427.152 1218.89 427.536C1218.37 427.912 1217.97 428.462 1217.67 429.187C1217.38 429.911 1217.24 430.788 1217.24 431.818C1217.24 432.862 1217.38 433.75 1217.66 434.482C1217.96 435.213 1218.36 435.771 1218.89 436.154C1219.41 436.538 1220.03 436.729 1220.73 436.729C1221.25 436.729 1221.72 436.623 1222.13 436.41C1222.55 436.197 1222.89 435.888 1223.16 435.483C1223.44 435.071 1223.62 434.577 1223.7 434.002H1227.99C1227.92 435.252 1227.58 436.353 1226.96 437.305C1226.36 438.249 1225.53 438.988 1224.46 439.521C1223.4 440.053 1222.14 440.32 1220.68 440.32ZM1235.56 440.309C1234.52 440.309 1233.58 440.128 1232.77 439.766C1231.95 439.396 1231.31 438.853 1230.83 438.136C1230.36 437.411 1230.13 436.509 1230.13 435.43C1230.13 434.521 1230.29 433.757 1230.63 433.139C1230.96 432.521 1231.42 432.024 1231.99 431.648C1232.57 431.271 1233.22 430.987 1233.95 430.795C1234.69 430.604 1235.46 430.469 1236.27 430.391C1237.22 430.291 1237.99 430.199 1238.57 430.114C1239.16 430.021 1239.58 429.886 1239.84 429.709C1240.1 429.531 1240.24 429.268 1240.24 428.92V428.857C1240.24 428.182 1240.02 427.66 1239.6 427.29C1239.18 426.921 1238.58 426.737 1237.81 426.737C1236.99 426.737 1236.34 426.918 1235.86 427.28C1235.37 427.635 1235.06 428.082 1234.9 428.622L1230.7 428.281C1230.91 427.287 1231.33 426.428 1231.96 425.703C1232.58 424.972 1233.39 424.411 1234.38 424.02C1235.37 423.622 1236.52 423.423 1237.83 423.423C1238.74 423.423 1239.61 423.53 1240.44 423.743C1241.28 423.956 1242.02 424.286 1242.67 424.734C1243.32 425.181 1243.83 425.756 1244.21 426.46C1244.59 427.156 1244.77 427.99 1244.77 428.963V440H1240.47V437.731H1240.34C1240.08 438.242 1239.73 438.693 1239.29 439.084C1238.85 439.467 1238.32 439.769 1237.7 439.989C1237.08 440.202 1236.37 440.309 1235.56 440.309ZM1236.86 437.177C1237.53 437.177 1238.12 437.045 1238.63 436.783C1239.14 436.513 1239.54 436.151 1239.83 435.696C1240.12 435.241 1240.27 434.727 1240.27 434.151V432.415C1240.13 432.507 1239.93 432.592 1239.68 432.67C1239.44 432.741 1239.17 432.809 1238.86 432.873C1238.56 432.93 1238.25 432.983 1237.95 433.033C1237.64 433.075 1237.36 433.114 1237.11 433.15C1236.58 433.228 1236.12 433.352 1235.72 433.523C1235.32 433.693 1235.01 433.924 1234.79 434.215C1234.57 434.499 1234.46 434.854 1234.46 435.281C1234.46 435.898 1234.69 436.371 1235.13 436.697C1235.59 437.017 1236.16 437.177 1236.86 437.177ZM1261.91 428.303L1257.76 428.558C1257.68 428.203 1257.53 427.884 1257.3 427.599C1257.06 427.308 1256.75 427.077 1256.37 426.907C1255.99 426.729 1255.54 426.641 1255.02 426.641C1254.31 426.641 1253.72 426.79 1253.24 427.088C1252.76 427.379 1252.51 427.77 1252.51 428.26C1252.51 428.651 1252.67 428.981 1252.98 429.251C1253.3 429.521 1253.83 429.737 1254.59 429.901L1257.55 430.497C1259.14 430.824 1260.33 431.349 1261.11 432.074C1261.89 432.798 1262.28 433.75 1262.28 434.929C1262.28 436.001 1261.97 436.942 1261.34 437.752C1260.71 438.562 1259.85 439.194 1258.76 439.648C1257.67 440.096 1256.42 440.32 1255 440.32C1252.83 440.32 1251.1 439.869 1249.82 438.967C1248.54 438.058 1247.79 436.822 1247.57 435.259L1252.03 435.025C1252.17 435.685 1252.5 436.19 1253.01 436.538C1253.53 436.879 1254.2 437.049 1255.01 437.049C1255.8 437.049 1256.44 436.896 1256.92 436.591C1257.41 436.278 1257.66 435.877 1257.67 435.387C1257.66 434.975 1257.49 434.638 1257.15 434.375C1256.81 434.105 1256.28 433.899 1255.57 433.757L1252.74 433.192C1251.14 432.873 1249.95 432.319 1249.17 431.531C1248.39 430.742 1248.01 429.737 1248.01 428.516C1248.01 427.464 1248.29 426.559 1248.86 425.799C1249.44 425.039 1250.24 424.453 1251.28 424.041C1252.32 423.629 1253.54 423.423 1254.94 423.423C1257.01 423.423 1258.64 423.86 1259.82 424.734C1261.02 425.607 1261.71 426.797 1261.91 428.303ZM1272.6 440.32C1270.92 440.32 1269.47 439.979 1268.25 439.297C1267.04 438.608 1266.11 437.635 1265.46 436.378C1264.81 435.114 1264.48 433.619 1264.48 431.893C1264.48 430.21 1264.81 428.732 1265.46 427.461C1266.11 426.19 1267.03 425.199 1268.22 424.489C1269.41 423.778 1270.81 423.423 1272.42 423.423C1273.5 423.423 1274.5 423.597 1275.43 423.945C1276.37 424.286 1277.19 424.801 1277.88 425.49C1278.59 426.179 1279.13 427.045 1279.52 428.089C1279.91 429.126 1280.11 430.341 1280.11 431.733V432.979H1266.29V430.167H1275.84C1275.84 429.513 1275.7 428.935 1275.41 428.43C1275.13 427.926 1274.73 427.532 1274.23 427.248C1273.73 426.957 1273.15 426.811 1272.49 426.811C1271.8 426.811 1271.19 426.971 1270.66 427.29C1270.13 427.603 1269.72 428.026 1269.42 428.558C1269.13 429.084 1268.97 429.67 1268.97 430.316V432.99C1268.97 433.8 1269.11 434.499 1269.41 435.089C1269.72 435.678 1270.15 436.133 1270.7 436.452C1271.26 436.772 1271.91 436.932 1272.67 436.932C1273.18 436.932 1273.64 436.861 1274.06 436.719C1274.48 436.577 1274.84 436.364 1275.13 436.08C1275.43 435.795 1275.66 435.447 1275.82 435.036L1280.01 435.312C1279.8 436.321 1279.36 437.202 1278.7 437.955C1278.05 438.7 1277.2 439.283 1276.17 439.702C1275.14 440.114 1273.95 440.32 1272.6 440.32Z" fill="black"/>
<path d="M1066.11 84V36.7273L1097.96 36.7273V44.9677L1076.1 44.9677V56.2319L1096.32 56.2319V64.4723H1076.1V75.7596H1098.05V84H1066.11ZM1115.56 63.5028V84H1105.72V48.5455H1115.1V54.8008H1115.51C1116.3 52.7388 1117.61 51.1076 1119.46 49.9073C1121.3 48.6916 1123.54 48.0838 1126.17 48.0838C1128.64 48.0838 1130.78 48.6224 1132.61 49.6996C1134.45 50.7768 1135.87 52.3156 1136.89 54.316C1137.9 56.3011 1138.41 58.6709 1138.41 61.4254V84H1128.58V63.1797C1128.59 61.0099 1128.04 59.3172 1126.91 58.1016C1125.79 56.8705 1124.24 56.255 1122.27 56.255C1120.95 56.255 1119.78 56.5397 1118.77 57.109C1117.77 57.6784 1116.98 58.5094 1116.41 59.6019C1115.86 60.6791 1115.57 61.9794 1115.56 63.5028ZM1165.02 48.5455V55.9318H1143.67V48.5455H1165.02ZM1148.51 40.0511H1158.35V73.1051C1158.35 74.013 1158.48 74.7209 1158.76 75.2287C1159.04 75.7211 1159.42 76.0674 1159.92 76.2674C1160.42 76.4674 1161.01 76.5675 1161.67 76.5675C1162.13 76.5675 1162.59 76.529 1163.05 76.4521C1163.52 76.3597 1163.87 76.2905 1164.12 76.2443L1165.66 83.5614C1165.17 83.7153 1164.48 83.8923 1163.59 84.0923C1162.69 84.3078 1161.61 84.4386 1160.33 84.4847C1157.96 84.5771 1155.88 84.2616 1154.1 83.5384C1152.33 82.8151 1150.95 81.6918 1149.97 80.1683C1148.98 78.6449 1148.5 76.7214 1148.51 74.3977V40.0511ZM1171.42 84V48.5455H1180.96V54.7315H1181.32C1181.97 52.531 1183.06 50.8691 1184.58 49.7457C1186.1 48.607 1187.86 48.0376 1189.84 48.0376C1190.33 48.0376 1190.87 48.0684 1191.43 48.13C1192 48.1915 1192.5 48.2762 1192.93 48.3839V57.109C1192.47 56.9705 1191.83 56.8474 1191.02 56.7397C1190.2 56.632 1189.46 56.5781 1188.78 56.5781C1187.33 56.5781 1186.04 56.8936 1184.9 57.5245C1183.78 58.14 1182.89 59.0018 1182.22 60.1097C1181.58 61.2177 1181.26 62.4949 1181.26 63.9414V84L1171.42 84ZM1207.11 84.6694C1204.85 84.6694 1202.84 84.277 1201.07 83.4922C1199.3 82.692 1197.9 81.5148 1196.86 79.9606C1195.85 78.391 1195.34 76.4367 1195.34 74.0977C1195.34 72.128 1195.7 70.4737 1196.43 69.1349C1197.15 67.7962 1198.13 66.719 1199.38 65.9034C1200.63 65.0878 1202.04 64.4723 1203.63 64.0568C1205.23 63.6413 1206.91 63.349 1208.66 63.1797C1210.72 62.9643 1212.38 62.7642 1213.65 62.5795C1214.91 62.3795 1215.82 62.0871 1216.39 61.7024C1216.96 61.3177 1217.25 60.7483 1217.25 59.9943V59.8558C1217.25 58.3939 1216.78 57.2629 1215.86 56.4627C1214.95 55.6625 1213.66 55.2624 1211.98 55.2624C1210.21 55.2624 1208.81 55.6548 1207.76 56.4396C1206.71 57.209 1206.02 58.1785 1205.68 59.348L1196.59 58.6094C1197.05 56.455 1197.96 54.593 1199.31 53.0234C1200.67 51.4384 1202.41 50.2228 1204.55 49.3764C1206.71 48.5147 1209.2 48.0838 1212.03 48.0838C1214 48.0838 1215.88 48.3146 1217.68 48.7763C1219.5 49.2379 1221.11 49.9535 1222.51 50.9229C1223.92 51.8924 1225.04 53.1388 1225.86 54.6623C1226.67 56.1703 1227.08 57.9785 1227.08 60.0866V84H1217.75V79.0835H1217.48C1216.91 80.1914 1216.15 81.1686 1215.19 82.0149C1214.24 82.8459 1213.09 83.4999 1211.75 83.9769C1210.41 84.4386 1208.87 84.6694 1207.11 84.6694ZM1209.93 77.8832C1211.38 77.8832 1212.65 77.5985 1213.76 77.0291C1214.87 76.4444 1215.74 75.6596 1216.37 74.6747C1217 73.6899 1217.32 72.5742 1217.32 71.3278V67.5653C1217.01 67.7654 1216.58 67.95 1216.05 68.1193C1215.52 68.2732 1214.93 68.4194 1214.27 68.5579C1213.61 68.681 1212.95 68.7964 1212.28 68.9041C1211.62 68.9964 1211.02 69.0811 1210.48 69.158C1209.33 69.3273 1208.32 69.5966 1207.46 69.9659C1206.6 70.3352 1205.93 70.8353 1205.45 71.4663C1204.97 72.0818 1204.74 72.8512 1204.74 73.7745C1204.74 75.1133 1205.22 76.1366 1206.19 76.8445C1207.17 77.5369 1208.42 77.8832 1209.93 77.8832ZM1244.54 63.5028V84H1234.71V48.5455H1244.08V54.8008H1244.5C1245.28 52.7388 1246.6 51.1076 1248.44 49.9073C1250.29 48.6916 1252.53 48.0838 1255.16 48.0838C1257.62 48.0838 1259.77 48.6224 1261.6 49.6996C1263.43 50.7768 1264.85 52.3156 1265.87 54.316C1266.89 56.3011 1267.39 58.6709 1267.39 61.4254V84H1257.56V63.1797C1257.58 61.0099 1257.02 59.3172 1255.9 58.1016C1254.77 56.8705 1253.23 56.255 1251.26 56.255C1249.93 56.255 1248.77 56.5397 1247.75 57.109C1246.75 57.6784 1245.96 58.5094 1245.4 59.6019C1244.84 60.6791 1244.56 61.9794 1244.54 63.5028ZM1291.16 84.6925C1287.53 84.6925 1284.41 83.9231 1281.79 82.3842C1279.19 80.83 1277.19 78.6757 1275.79 75.9212C1274.4 73.1667 1273.71 69.9967 1273.71 66.4112C1273.71 62.7796 1274.41 59.5942 1275.81 56.8551C1277.23 54.1006 1279.24 51.954 1281.84 50.4151C1284.44 48.8609 1287.53 48.0838 1291.12 48.0838C1294.21 48.0838 1296.92 48.6455 1299.24 49.7688C1301.56 50.8922 1303.4 52.4695 1304.76 54.5007C1306.11 56.532 1306.86 58.9171 1307 61.6562L1297.72 61.6562C1297.46 59.8866 1296.76 58.4632 1295.64 57.386C1294.53 56.2934 1293.08 55.7472 1291.28 55.7472C1289.75 55.7472 1288.42 56.1626 1287.28 56.9936C1286.16 57.8092 1285.28 59.0018 1284.65 60.5714C1284.02 62.141 1283.71 64.0414 1283.71 66.2727C1283.71 68.5348 1284.01 70.4583 1284.63 72.0433C1285.26 73.6283 1286.15 74.8363 1287.28 75.6673C1288.42 76.4982 1289.75 76.9137 1291.28 76.9137C1292.4 76.9137 1293.41 76.6829 1294.3 76.2212C1295.21 75.7596 1295.96 75.0902 1296.54 74.2131C1297.14 73.3205 1297.53 72.2511 1297.72 71.0046L1307 71.0046C1306.84 73.7129 1306.1 76.0981 1304.78 78.1602C1303.47 80.2068 1301.66 81.8072 1299.36 82.9613C1297.05 84.1154 1294.32 84.6925 1291.16 84.6925ZM1329.45 84.6925C1325.8 84.6925 1322.66 83.9538 1320.03 82.4766C1317.42 80.9839 1315.4 78.8757 1313.98 76.152C1312.57 73.4129 1311.86 70.1736 1311.86 66.4343C1311.86 62.7873 1312.57 59.5865 1313.98 56.832C1315.4 54.0775 1317.39 51.9309 1319.96 50.392C1322.55 48.8532 1325.58 48.0838 1329.06 48.0838C1331.4 48.0838 1333.57 48.4608 1335.59 49.2148C1337.62 49.9535 1339.39 51.0691 1340.9 52.5618C1342.42 54.0545 1343.61 55.9318 1344.45 58.1939C1345.3 60.4406 1345.72 63.072 1345.72 66.0881V68.7887H1315.79V62.695H1336.47C1336.47 61.2792 1336.16 60.0251 1335.54 58.9325C1334.93 57.84 1334.07 56.9859 1332.98 56.3704C1331.9 55.7395 1330.65 55.424 1329.22 55.424C1327.73 55.424 1326.4 55.7702 1325.25 56.4627C1324.11 57.1398 1323.22 58.0554 1322.57 59.2095C1321.92 60.3482 1321.59 61.6178 1321.58 63.0181V68.8118C1321.58 70.5661 1321.9 72.0818 1322.55 73.359C1323.21 74.6362 1324.14 75.6211 1325.34 76.3136C1326.54 77.006 1327.96 77.3523 1329.61 77.3523C1330.7 77.3523 1331.7 77.1984 1332.61 76.8906C1333.52 76.5829 1334.3 76.1212 1334.94 75.5057C1335.59 74.8902 1336.08 74.1361 1336.42 73.2436L1345.52 73.8437C1345.05 76.0289 1344.11 77.937 1342.68 79.5682C1341.26 81.1839 1339.43 82.4458 1337.18 83.3537C1334.95 84.2462 1332.37 84.6925 1329.45 84.6925Z" fill="black"/>
<rect x="946.5" y="125.5" width="240" height="262" rx="4.5" stroke="black" stroke-opacity="0.05"/>
<rect x="1016" y="142" width="40" height="60" rx="3" transform="rotate(90 1016 142)" fill="#383DA7"/>
<rect x="1096.5" y="142" width="40" height="60" rx="3" transform="rotate(90 1096.5 142)" fill="#383DA7"/>
<rect x="1177" y="142" width="40" height="60" rx="3" transform="rotate(90 1177 142)" fill="#383DA7"/>
<rect x="1016" y="205" width="40" height="60" rx="3" transform="rotate(90 1016 205)" fill="#383DA7"/>
<rect x="1096.5" y="205" width="40" height="60" rx="3" transform="rotate(90 1096.5 205)" fill="#383DA7"/>
<rect x="1177" y="205" width="40" height="60" rx="3" transform="rotate(90 1177 205)" fill="#383DA7"/>
<rect x="1016" y="268" width="40" height="60" rx="3" transform="rotate(90 1016 268)" fill="#383DA7"/>
<rect x="1096.5" y="268" width="40" height="60" rx="3" transform="rotate(90 1096.5 268)" fill="#383DA7"/>
<rect x="1177" y="268" width="40" height="60" rx="3" transform="rotate(90 1177 268)" fill="#383DA7"/>
<rect x="1016" y="331" width="40" height="60" rx="3" transform="rotate(90 1016 331)" fill="#383DA7"/>
<rect x="1096.5" y="331" width="40" height="60" rx="3" transform="rotate(90 1096.5 331)" fill="#383DA7"/>
<rect x="1177" y="331" width="40" height="60" rx="3" transform="rotate(90 1177 331)" fill="#383DA7"/>
<rect x="946.5" y="470.5" width="241" height="262" rx="4.5" stroke="black" stroke-opacity="0.05"/>
<rect x="1016" y="487" width="40" height="60" rx="3" transform="rotate(90 1016 487)" fill="#317F24"/>
<rect x="1096.5" y="487" width="40" height="60" rx="3" transform="rotate(90 1096.5 487)" fill="#317F24"/>
<rect x="1177" y="487" width="40" height="60" rx="3" transform="rotate(90 1177 487)" fill="#317F24"/>
<rect x="1016" y="550" width="40" height="60" rx="3" transform="rotate(90 1016 550)" fill="#317F24"/>
<rect x="1096.5" y="550" width="40" height="60" rx="3" transform="rotate(90 1096.5 550)" fill="#317F24"/>
<rect x="1177" y="550" width="40" height="60" rx="3" transform="rotate(90 1177 550)" fill="#317F24"/>
<rect x="1016" y="613" width="40" height="60" rx="3" transform="rotate(90 1016 613)" fill="#317F24"/>
<rect x="1096.5" y="613" width="40" height="60" rx="3" transform="rotate(90 1096.5 613)" fill="#317F24"/>
<rect x="1177" y="613" width="40" height="60" rx="3" transform="rotate(90 1177 613)" fill="#317F24"/>
<rect x="1016" y="676" width="40" height="60" rx="3" transform="rotate(90 1016 676)" fill="#317F24"/>
<rect x="1096.5" y="676" width="40" height="60" rx="3" transform="rotate(90 1096.5 676)" fill="#317F24"/>
<rect x="1177" y="676" width="40" height="60" rx="3" transform="rotate(90 1177 676)" fill="#317F24"/>
<rect x="665.5" y="470.5" width="206" height="262" rx="4.5" stroke="black" stroke-opacity="0.05"/>
<rect x="749" y="485" width="40" height="60" rx="3" transform="rotate(90 749 485)" fill="#EE29AB"/>
<rect x="849" y="485" width="40" height="60" rx="3" transform="rotate(90 849 485)" fill="#EE29AB"/>
<rect x="749" y="548" width="40" height="60" rx="3" transform="rotate(90 749 548)" fill="#EE29AB"/>
<rect x="849" y="548" width="40" height="60" rx="3" transform="rotate(90 849 548)" fill="#EE29AB"/>
<rect x="749" y="611" width="40" height="60" rx="3" transform="rotate(90 749 611)" fill="#EE29AB"/>
<rect x="849" y="611" width="40" height="60" rx="3" transform="rotate(90 849 611)" fill="#EE29AB"/>
<rect x="749" y="674" width="40" height="60" rx="3" transform="rotate(90 749 674)" fill="#EE29AB"/>
<rect x="849" y="674" width="40" height="60" rx="3" transform="rotate(90 849 674)" fill="#EE29AB"/>
<rect x="665.5" y="125.5" width="215" height="269" rx="4.5" stroke="black" stroke-opacity="0.05"/>
<rect x="745" y="145.5" width="40" height="60" rx="3" transform="rotate(90 745 145.5)" fill="#FFD339"/>
<rect x="862" y="140" width="51" height="77" rx="3" transform="rotate(90 862 140)" fill="black"/>
<rect x="745" y="214" width="40" height="60" rx="3" transform="rotate(90 745 214)" fill="#FFD339"/>
<rect x="845" y="214" width="40" height="60" rx="3" transform="rotate(90 845 214)" fill="#FFD339"/>
<rect x="745" y="277" width="40" height="60" rx="3" transform="rotate(90 745 277)" fill="#FFD339"/>
<rect x="845" y="277" width="40" height="60" rx="3" transform="rotate(90 845 277)" fill="#FFD339"/>
<rect x="745" y="340" width="40" height="60" rx="3" transform="rotate(90 745 340)" fill="#FFD339"/>
<rect x="845" y="340" width="40" height="60" rx="3" transform="rotate(90 845 340)" fill="#FFD339"/>
<rect x="1196.5" y="125.5" width="241" height="262" rx="4.5" stroke="black" stroke-opacity="0.05"/>
<rect x="1266" y="142" width="40" height="60" rx="3" transform="rotate(90 1266 142)" fill="#A92929"/>
<rect x="1346.5" y="142" width="40" height="60" rx="3" transform="rotate(90 1346.5 142)" fill="#A92929"/>
<rect x="1427" y="142" width="40" height="60" rx="3" transform="rotate(90 1427 142)" fill="#A92929"/>
<rect x="1266" y="205" width="40" height="60" rx="3" transform="rotate(90 1266 205)" fill="#A92929"/>
<rect x="1346.5" y="205" width="40" height="60" rx="3" transform="rotate(90 1346.5 205)" fill="#A92929"/>
<rect x="1427" y="205" width="40" height="60" rx="3" transform="rotate(90 1427 205)" fill="#A92929"/>
<rect x="1266" y="268" width="40" height="60" rx="3" transform="rotate(90 1266 268)" fill="#A92929"/>
<rect x="1346.5" y="268" width="40" height="60" rx="3" transform="rotate(90 1346.5 268)" fill="#A92929"/>
<rect x="1427" y="268" width="40" height="60" rx="3" transform="rotate(90 1427 268)" fill="#A92929"/>
<rect x="1266" y="331" width="40" height="60" rx="3" transform="rotate(90 1266 331)" fill="#A92929"/>
<rect x="1346.5" y="331" width="40" height="60" rx="3" transform="rotate(90 1346.5 331)" fill="#A92929"/>
<rect x="1427" y="331" width="40" height="60" rx="3" transform="rotate(90 1427 331)" fill="#A92929"/>
<rect x="1196.5" y="470.5" width="241" height="262" rx="4.5" stroke="black" stroke-opacity="0.05"/>
<rect x="1266" y="487" width="40" height="60" rx="3" transform="rotate(90 1266 487)" fill="#7728A7"/>
<rect x="1346.5" y="487" width="40" height="60" rx="3" transform="rotate(90 1346.5 487)" fill="#7728A7"/>
<rect x="1427" y="487" width="40" height="60" rx="3" transform="rotate(90 1427 487)" fill="#7728A7"/>
<rect x="1266" y="550" width="40" height="60" rx="3" transform="rotate(90 1266 550)" fill="#7728A7"/>
<rect x="1346.5" y="550" width="40" height="60" rx="3" transform="rotate(90 1346.5 550)" fill="#7728A7"/>
<rect x="1427" y="550" width="40" height="60" rx="3" transform="rotate(90 1427 550)" fill="#7728A7"/>
<rect x="1266" y="613" width="40" height="60" rx="3" transform="rotate(90 1266 613)" fill="#7728A7"/>
<rect x="1346.5" y="613" width="40" height="60" rx="3" transform="rotate(90 1346.5 613)" fill="#7728A7"/>
<rect x="1427" y="613" width="40" height="60" rx="3" transform="rotate(90 1427 613)" fill="#7728A7"/>
<rect x="1266" y="676" width="40" height="60" rx="3" transform="rotate(90 1266 676)" fill="#7728A7"/>
<rect x="1346.5" y="676" width="40" height="60" rx="3" transform="rotate(90 1346.5 676)" fill="#7728A7"/>
<rect x="1427" y="676" width="40" height="60" rx="3" transform="rotate(90 1427 676)" fill="#7728A7"/>
</svg>
