<svg width="1051" height="759" viewBox="0 0 1051 759" fill="none" xmlns="http://www.w3.org/2000/svg">
<g opacity="0.7" filter="url(#filter0_f_673_594)">
<path d="M283.617 365.748L252.828 443.229C249.791 450.873 250.55 459.504 254.875 466.501L272.293 494.68C278.862 505.307 292.061 509.759 303.725 505.282L427.724 457.691C431.678 456.173 435.201 453.712 437.988 450.523L488.373 392.847C495.391 384.814 496.79 373.31 491.903 363.829L441.006 265.088C436.547 256.436 427.629 251 417.896 251H337.102C325.594 251 315.455 258.565 312.178 269.597L283.617 365.748Z" fill="#D9D9D9"/>
<path d="M283.617 365.748L252.828 443.229C249.791 450.873 250.55 459.504 254.875 466.501L272.293 494.68C278.862 505.307 292.061 509.759 303.725 505.282L427.724 457.691C431.678 456.173 435.201 453.712 437.988 450.523L488.373 392.847C495.391 384.814 496.79 373.31 491.903 363.829L441.006 265.088C436.547 256.436 427.629 251 417.896 251H337.102C325.594 251 315.455 258.565 312.178 269.597L283.617 365.748Z" fill="url(#paint0_linear_673_594)"/>
<path d="M283.617 365.748L252.828 443.229C249.791 450.873 250.55 459.504 254.875 466.501L272.293 494.68C278.862 505.307 292.061 509.759 303.725 505.282L427.724 457.691C431.678 456.173 435.201 453.712 437.988 450.523L488.373 392.847C495.391 384.814 496.79 373.31 491.903 363.829L441.006 265.088C436.547 256.436 427.629 251 417.896 251H337.102C325.594 251 315.455 258.565 312.178 269.597L283.617 365.748Z" stroke="#242429" stroke-width="2" stroke-linecap="round"/>
</g>
<g opacity="0.7" filter="url(#filter1_f_673_594)">
<path d="M603.214 356.989L574.914 427.529C571.826 435.228 572.596 443.938 576.988 450.975L591.898 474.867C598.474 485.404 611.584 489.818 623.194 485.405L737.206 442.062C741.152 440.562 744.674 438.124 747.466 434.957L793.201 383.103C800.311 375.042 801.727 363.437 796.766 353.902L750.499 264.997C746.022 256.396 737.131 251 727.435 251H654.347C642.864 251 632.741 258.533 629.443 269.531L603.214 356.989Z" fill="#D9D9D9"/>
<path d="M603.214 356.989L574.914 427.529C571.826 435.228 572.596 443.938 576.988 450.975L591.898 474.867C598.474 485.404 611.584 489.818 623.194 485.405L737.206 442.062C741.152 440.562 744.674 438.124 747.466 434.957L793.201 383.103C800.311 375.042 801.727 363.437 796.766 353.902L750.499 264.997C746.022 256.396 737.131 251 727.435 251H654.347C642.864 251 632.741 258.533 629.443 269.531L603.214 356.989Z" fill="url(#paint1_linear_673_594)"/>
<path d="M603.214 356.989L574.914 427.529C571.826 435.228 572.596 443.938 576.988 450.975L591.898 474.867C598.474 485.404 611.584 489.818 623.194 485.405L737.206 442.062C741.152 440.562 744.674 438.124 747.466 434.957L793.201 383.103C800.311 375.042 801.727 363.437 796.766 353.902L750.499 264.997C746.022 256.396 737.131 251 727.435 251H654.347C642.864 251 632.741 258.533 629.443 269.531L603.214 356.989Z" stroke="#242429" stroke-width="2" stroke-linecap="round"/>
</g>
<defs>
<filter id="filter0_f_673_594" x="-0.00976562" y="0" width="745.803" height="758.012" filterUnits="userSpaceOnUse" color-interpolation-filters="sRGB">
<feFlood flood-opacity="0" result="BackgroundImageFix"/>
<feBlend mode="normal" in="SourceGraphic" in2="BackgroundImageFix" result="shape"/>
<feGaussianBlur stdDeviation="125" result="effect1_foregroundBlur_673_594"/>
</filter>
<filter id="filter1_f_673_594" x="322.045" y="0" width="728.656" height="738.104" filterUnits="userSpaceOnUse" color-interpolation-filters="sRGB">
<feFlood flood-opacity="0" result="BackgroundImageFix"/>
<feBlend mode="normal" in="SourceGraphic" in2="BackgroundImageFix" result="shape"/>
<feGaussianBlur stdDeviation="125" result="effect1_foregroundBlur_673_594"/>
</filter>
<linearGradient id="paint0_linear_673_594" x1="381.794" y1="251" x2="381.794" y2="460.119" gradientUnits="userSpaceOnUse">
<stop stop-color="#2A6AA2"/>
<stop offset="1" stop-color="#00427C"/>
</linearGradient>
<linearGradient id="paint1_linear_673_594" x1="694.768" y1="251" x2="694.768" y2="444.156" gradientUnits="userSpaceOnUse">
<stop stop-color="#2A6AA2"/>
<stop offset="1" stop-color="#00427C"/>
</linearGradient>
</defs>
</svg>
