<svg width="1512" height="2251" viewBox="0 0 1512 2251" fill="none" xmlns="http://www.w3.org/2000/svg">
<g opacity="0.4" filter="url(#filter0_f_1140_45)">
<path d="M318.5 1942L95.5 1997.5L39.5 2066.5L172.5 2131L404.5 2105H533.5L907 2066.5L1040 1997.5V2131H1246L1512.5 2066.5L1332 1899L1396.5 1731.5V1409.5L1486.5 1250.5L1332 1061.5H1246V821L1263.38 799.176C1344.22 697.659 1357.14 557.865 1296.3 443.244L1246 348.5L907 250L855.5 417.5L658 512L318.5 348.5V593.5L215.5 653.5V851L241.5 1018.5L370 962.5V821H799.5L658 1100V1216L799.5 1297.5H907L1160.5 1439.5L1109 1731.5H756.5L713.5 1499.5H533.5L507.5 1675.5L318.5 1942Z" fill="#3B88CC"/>
</g>
<defs>
<filter id="filter0_f_1140_45" x="-210.5" y="0" width="1973" height="2381" filterUnits="userSpaceOnUse" color-interpolation-filters="sRGB">
<feFlood flood-opacity="0" result="BackgroundImageFix"/>
<feBlend mode="normal" in="SourceGraphic" in2="BackgroundImageFix" result="shape"/>
<feGaussianBlur stdDeviation="125" result="effect1_foregroundBlur_1140_45"/>
</filter>
</defs>
</svg>
