<svg width="1268" height="995" viewBox="0 0 1268 995" fill="none" xmlns="http://www.w3.org/2000/svg">
<g opacity="0.7" filter="url(#filter0_f_935_3)">
<path d="M402.508 495.424L259.969 631.499C246.101 644.738 250.843 667.922 268.796 674.651L447.239 741.538C453.189 743.769 459.749 743.743 465.681 741.466L677.654 660.109L978.883 533.968C987.596 530.32 993.644 522.233 994.682 512.844L1015.98 320.265C1017.42 307.253 1008.96 295.2 996.234 292.131L828.904 251.785C824.07 250.62 819.002 250.865 814.303 252.492L514.119 356.428C509.275 358.105 505.035 361.177 501.932 365.256L405.248 492.359C404.417 493.451 403.501 494.476 402.508 495.424Z" fill="#D9D9D9"/>
<path d="M402.508 495.424L259.969 631.499C246.101 644.738 250.843 667.922 268.796 674.651L447.239 741.538C453.189 743.769 459.749 743.743 465.681 741.466L677.654 660.109L978.883 533.968C987.596 530.32 993.644 522.233 994.682 512.844L1015.98 320.265C1017.42 307.253 1008.96 295.2 996.234 292.131L828.904 251.785C824.07 250.62 819.002 250.865 814.303 252.492L514.119 356.428C509.275 358.105 505.035 361.177 501.932 365.256L405.248 492.359C404.417 493.451 403.501 494.476 402.508 495.424Z" fill="url(#paint0_linear_935_3)"/>
<path d="M402.508 495.424L259.969 631.499C246.101 644.738 250.843 667.922 268.796 674.651L447.239 741.538C453.189 743.769 459.749 743.743 465.681 741.466L677.654 660.109L978.883 533.968C987.596 530.32 993.644 522.233 994.682 512.844L1015.98 320.265C1017.42 307.253 1008.96 295.2 996.234 292.131L828.904 251.785C824.07 250.62 819.002 250.865 814.303 252.492L514.119 356.428C509.275 358.105 505.035 361.177 501.932 365.256L405.248 492.359C404.417 493.451 403.501 494.476 402.508 495.424Z" stroke="#242429" stroke-width="2" stroke-linecap="round"/>
</g>
<defs>
<filter id="filter0_f_935_3" x="0.914062" y="0.0610352" width="1266.23" height="994.131" filterUnits="userSpaceOnUse" color-interpolation-filters="sRGB">
<feFlood flood-opacity="0" result="BackgroundImageFix"/>
<feBlend mode="normal" in="SourceGraphic" in2="BackgroundImageFix" result="shape"/>
<feGaussianBlur stdDeviation="125" result="effect1_foregroundBlur_935_3"/>
</filter>
<linearGradient id="paint0_linear_935_3" x1="601.116" y1="359" x2="601.116" y2="667.092" gradientUnits="userSpaceOnUse">
<stop stop-color="#2A6AA2"/>
<stop offset="1" stop-color="#00427C"/>
</linearGradient>
</defs>
</svg>
