  0
SECTION
  2
HEADER
  9
$ACADVER
  1
AC1006
  9
$EXTMIN
 10
0.000000
 20
0.000000
 30
0.000000
  9
$EXTMAX
 10
610.000000
 20
376.000000
 30
0.000000
  0
ENDSEC
  0
SECTION
  2
ENTITIES
  0
POLYLINE
  8
0
 66
1
 70
1
  0
VERTEX
  8
0
 10
308.971155
 20
314.628903
 42
0.036483
  0
VERTEX
  8
0
 10
300.089586
 20
310.409417
 42
0.028207
  0
VERTEX
  8
0
 10
291.081905
 20
304.599509
 42
0.027659
  0
VERTEX
  8
0
 10
282.581852
 20
297.661613
 42
0.030786
  0
VERTEX
  8
0
 10
275.217219
 20
290.057295
 42
0.035183
  0
VERTEX
  8
0
 10
268.271434
 20
280.679500
 42
0.026644
  0
VERTEX
  8
0
 10
261.974374
 20
269.523881
 42
0.026339
  0
VERTEX
  8
0
 10
257.342321
 20
258.806305
 42
0.089054
  0
VERTEX
  8
0
 10
256.000000
 20
251.329542
 42
0.044882
  0
VERTEX
  8
0
 10
256.216821
 20
248.918945
 42
0.333103
  0
VERTEX
  8
0
 10
257.010028
 20
248.182506
 42
0.186508
  0
VERTEX
  8
0
 10
258.393315
 20
248.555771
 42
0.017451
  0
VERTEX
  8
0
 10
261.215204
 20
250.778777
 42
-0.045589
  0
VERTEX
  8
0
 10
271.441930
 20
257.942030
 42
-0.038808
  0
VERTEX
  8
0
 10
283.352823
 20
263.583419
 42
-0.036714
  0
VERTEX
  8
0
 10
296.667734
 20
267.576474
 42
-0.031781
  0
VERTEX
  8
0
 10
311.083088
 20
269.820384
 42
-0.016324
  0
VERTEX
  8
0
 10
315.961753
 20
270.104819
 42
-0.006183
  0
VERTEX
  8
0
 10
322.787416
 20
270.195099
 42
-0.006047
  0
VERTEX
  8
0
 10
330.318876
 20
270.110488
 42
-0.006727
  0
VERTEX
  8
0
 10
337.583088
 20
269.843182
 42
-0.005472
  0
VERTEX
  8
0
 10
347.037066
 20
269.264078
 42
-0.017423
  0
VERTEX
  8
0
 10
353.328320
 20
268.588552
 42
-0.021932
  0
VERTEX
  8
0
 10
358.742014
 20
267.571708
 42
-0.013595
  0
VERTEX
  8
0
 10
365.000000
 20
265.928974
 42
-0.022072
  0
VERTEX
  8
0
 10
373.658269
 20
262.982309
 42
-0.047531
  0
VERTEX
  8
0
 10
379.942191
 20
259.812714
 42
-0.044750
  0
VERTEX
  8
0
 10
385.742175
 20
255.388969
 42
-0.017572
  0
VERTEX
  8
0
 10
392.924394
 20
248.338075
 42
-0.017953
  0
VERTEX
  8
0
 10
398.152185
 20
242.420448
 42
-0.027324
  0
VERTEX
  8
0
 10
402.208605
 20
236.892423
 42
-0.031406
  0
VERTEX
  8
0
 10
405.178844
 20
231.651703
 42
-0.043410
  0
VERTEX
  8
0
 10
407.112760
 20
226.606828
 42
-0.066254
  0
VERTEX
  8
0
 10
407.453141
 20
224.307767
 42
-0.000455
  0
VERTEX
  8
0
 10
407.727993
 20
204.332850
 42
-0.001768
  0
VERTEX
  8
0
 10
407.941003
 20
181.460777
 42
-0.001129
  0
VERTEX
  8
0
 10
408.034571
 20
154.869136
 42
0.001056
  0
VERTEX
  8
0
 10
408.131367
 20
126.176207
 42
0.002370
  0
VERTEX
  8
0
 10
408.354120
 20
104.395627
 42
0.000323
  0
VERTEX
  8
0
 10
408.637890
 20
86.221291
 42
0.255599
  0
VERTEX
  8
0
 10
409.073607
 20
85.454508
 42
0.249191
  0
VERTEX
  8
0
 10
412.636271
 20
85.222107
 42
0.002333
  0
VERTEX
  8
0
 10
437.320919
 20
96.482131
 42
0.008319
  0
VERTEX
  8
0
 10
461.265923
 20
108.027201
 42
0.015958
  0
VERTEX
  8
0
 10
480.000000
 20
118.208647
 42
0.007544
  0
VERTEX
  8
0
 10
497.488572
 20
128.806699
 42
0.007124
  0
VERTEX
  8
0
 10
514.989961
 20
140.127362
 42
0.007267
  0
VERTEX
  8
0
 10
531.764680
 20
151.675985
 42
0.008935
  0
VERTEX
  8
0
 10
547.063574
 20
162.956242
 42
0.011296
  0
VERTEX
  8
0
 10
554.457760
 20
168.884459
 42
0.005023
  0
VERTEX
  8
0
 10
563.945906
 20
177.014080
 42
0.001610
  0
VERTEX
  8
0
 10
573.598144
 20
185.508928
 42
0.112443
  0
VERTEX
  8
0
 10
574.844541
 20
187.247717
 42
0.273558
  0
VERTEX
  8
0
 10
574.667755
 20
188.538910
 42
0.034789
  0
VERTEX
  8
0
 10
572.697376
 20
190.698255
 42
0.018199
  0
VERTEX
  8
0
 10
568.842969
 20
194.114310
 42
0.002549
  0
VERTEX
  8
0
 10
560.590481
 20
200.838247
 42
0.002888
  0
VERTEX
  8
0
 10
545.400778
 20
212.942020
 42
0.008101
  0
VERTEX
  8
0
 10
534.579718
 20
221.182472
 42
0.008686
  0
VERTEX
  8
0
 10
523.922669
 20
228.746634
 42
0.003766
  0
VERTEX
  8
0
 10
509.500000
 20
238.452694
 42
0.006438
  0
VERTEX
  8
0
 10
500.126237
 20
244.486762
 42
0.003730
  0
VERTEX
  8
0
 10
488.715194
 20
251.508243
 42
0.000764
  0
VERTEX
  8
0
 10
476.928727
 20
258.615465
 42
0.136104
  0
VERTEX
  8
0
 10
475.542251
 20
259.000000
 42
-0.122397
  0
VERTEX
  8
0
 10
475.160129
 20
259.094964
 42
-0.004875
  0
VERTEX
  8
0
 10
473.888617
 20
259.784508
 42
-0.008342
  0
VERTEX
  8
0
 10
472.393121
 20
260.647432
 42
-0.005779
  0
VERTEX
  8
0
 10
470.730128
 20
261.670664
 42
0.024556
  0
VERTEX
  8
0
 10
459.224881
 20
268.167462
 42
0.006304
  0
VERTEX
  8
0
 10
440.011351
 20
277.504016
 42
0.006745
  0
VERTEX
  8
0
 10
419.519560
 20
286.808795
 42
0.012269
  0
VERTEX
  8
0
 10
402.500000
 20
293.769192
 42
0.009525
  0
VERTEX
  8
0
 10
386.830774
 20
299.393632
 42
0.006225
  0
VERTEX
  8
0
 10
368.561362
 20
305.308853
 42
0.006146
  0
VERTEX
  8
0
 10
351.144664
 20
310.475586
 42
0.016843
  0
VERTEX
  8
0
 10
338.689699
 20
313.555355
 42
0.024418
  0
VERTEX
  8
0
 10
330.550330
 20
314.868060
 42
0.018744
  0
VERTEX
  8
0
 10
321.567154
 20
315.530344
 42
0.017224
  0
VERTEX
  8
0
 10
313.446080
 20
315.543854
 42
0.084652
  0
SEQEND
  0
POLYLINE
  8
0
 66
1
 70
1
  0
VERTEX
  8
0
 10
198.000000
 20
289.120883
 42
0.005404
  0
VERTEX
  8
0
 10
195.884617
 20
288.257439
 42
0.002643
  0
VERTEX
  8
0
 10
193.206250
 20
287.113576
 42
0.002622
  0
VERTEX
  8
0
 10
190.434040
 20
285.894963
 42
0.003800
  0
VERTEX
  8
0
 10
188.000000
 20
284.787488
 42
-0.001386
  0
VERTEX
  8
0
 10
185.239657
 20
283.515425
 42
-0.000506
  0
VERTEX
  8
0
 10
181.325000
 20
281.729343
 42
-0.000502
  0
VERTEX
  8
0
 10
177.040300
 20
279.784847
 42
-0.000600
  0
VERTEX
  8
0
 10
173.000000
 20
277.961986
 42
0.003985
  0
VERTEX
  8
0
 10
168.887315
 20
276.072853
 42
0.002974
  0
VERTEX
  8
0
 10
164.381250
 20
273.926581
 42
0.003006
  0
VERTEX
  8
0
 10
160.158626
 20
271.853000
 42
0.006836
  0
VERTEX
  8
0
 10
157.000000
 20
270.223980
 42
0.002408
  0
VERTEX
  8
0
 10
147.378272
 20
265.034286
 42
0.002288
  0
VERTEX
  8
0
 10
137.640435
 20
259.663285
 42
0.001529
  0
VERTEX
  8
0
 10
129.024401
 20
254.824888
 42
0.021282
  0
VERTEX
  8
0
 10
126.000000
 20
252.940146
 42
-0.011632
  0
VERTEX
  8
0
 10
124.703448
 20
252.097002
 42
-0.003864
  0
VERTEX
  8
0
 10
122.765625
 20
250.920630
 42
-0.003845
  0
VERTEX
  8
0
 10
120.597611
 20
249.649842
 42
-0.004366
  0
VERTEX
  8
0
 10
118.500000
 20
248.466164
 42
0.025835
  0
VERTEX
  8
0
 10
98.264919
 20
235.873193
 42
0.007760
  0
VERTEX
  8
0
 10
68.812860
 20
214.675081
 42
0.001929
  0
VERTEX
  8
0
 10
37.688448
 20
191.344600
 42
0.334196
  0
VERTEX
  8
0
 10
36.609829
 20
187.574386
 42
0.133895
  0
VERTEX
  8
0
 10
39.627621
 20
183.458058
 42
0.002746
  0
VERTEX
  8
0
 10
59.920819
 20
167.496540
 42
0.007203
  0
VERTEX
  8
0
 10
80.609772
 20
151.879919
 42
0.013144
  0
VERTEX
  8
0
 10
98.000000
 20
139.831596
 42
0.009732
  0
VERTEX
  8
0
 10
122.105332
 20
124.713991
 42
0.012572
  0
VERTEX
  8
0
 10
144.830092
 20
111.837029
 42
0.012921
  0
VERTEX
  8
0
 10
167.645635
 20
100.403474
 42
0.011363
  0
VERTEX
  8
0
 10
192.012158
 20
89.639201
 42
0.013345
  0
VERTEX
  8
0
 10
220.541932
 20
78.685981
 42
0.014422
  0
VERTEX
  8
0
 10
248.892374
 20
69.572048
 42
0.015435
  0
VERTEX
  8
0
 10
275.229178
 20
62.809791
 42
0.026608
  0
VERTEX
  8
0
 10
297.540516
 20
59.042767
 42
0.014105
  0
VERTEX
  8
0
 10
308.045964
 20
58.138641
 42
0.149462
  0
VERTEX
  8
0
 10
312.174689
 20
59.145004
 42
0.097733
  0
VERTEX
  8
0
 10
315.747564
 20
62.346684
 42
0.004373
  0
VERTEX
  8
0
 10
325.636386
 20
75.724741
 42
0.000369
  0
VERTEX
  8
0
 10
330.689488
 20
82.698223
 42
0.000505
  0
VERTEX
  8
0
 10
335.227979
 20
88.984634
 42
0.000326
  0
VERTEX
  8
0
 10
339.033549
 20
94.274349
 42
0.005938
  0
VERTEX
  8
0
 10
340.224820
 20
95.974741
 42
-0.005998
  0
VERTEX
  8
0
 10
341.222388
 20
97.398280
 42
-0.001143
  0
VERTEX
  8
0
 10
343.073625
 20
99.961330
 42
-0.001219
  0
VERTEX
  8
0
 10
345.249053
 20
102.943436
 42
-0.001121
  0
VERTEX
  8
0
 10
347.500792
 20
106.000000
 42
0.001860
  0
VERTEX
  8
0
 10
349.878506
 20
109.237576
 42
0.001459
  0
VERTEX
  8
0
 10
352.433670
 20
112.765625
 42
0.001475
  0
VERTEX
  8
0
 10
354.791027
 20
116.061084
 42
0.003625
  0
VERTEX
  8
0
 10
356.498333
 20
118.500000
 42
-0.001004
  0
VERTEX
  8
0
 10
358.025472
 20
120.706074
 42
-0.000686
  0
VERTEX
  8
0
 10
359.768725
 20
123.206250
 42
-0.000691
  0
VERTEX
  8
0
 10
361.455697
 20
125.611559
 42
-0.001398
  0
VERTEX
  8
0
 10
362.791971
 20
127.500000
 42
0.001151
  0
VERTEX
  8
0
 10
370.428444
 20
138.280641
 42
0.001654
  0
VERTEX
  8
0
 10
377.137473
 20
147.865511
 42
0.000821
  0
VERTEX
  8
0
 10
382.806218
 20
156.050103
 42
0.028185
  0
VERTEX
  8
0
 10
384.030828
 20
158.057603
 42
0.112832
  0
VERTEX
  8
0
 10
384.464000
 20
159.643213
 42
0.003715
  0
VERTEX
  8
0
 10
384.691979
 20
166.241400
 42
0.006302
  0
VERTEX
  8
0
 10
384.813248
 20
174.601355
 42
0.003118
  0
VERTEX
  8
0
 10
384.767242
 20
185.216475
 42
0.000000
  0
VERTEX
  8
0
 10
384.500000
 20
210.500000
 42
0.000000
  0
VERTEX
  8
0
 10
342.726881
 20
210.760990
 42
0.000000
  0
VERTEX
  8
0
 10
300.953762
 20
211.021980
 42
0.000000
  0
VERTEX
  8
0
 10
301.226881
 20
193.260990
 42
0.000000
  0
VERTEX
  8
0
 10
301.500000
 20
175.500000
 42
0.000000
  0
VERTEX
  8
0
 10
305.500000
 20
173.500000
 42
0.053084
  0
VERTEX
  8
0
 10
308.365525
 20
172.429321
 42
0.035714
  0
VERTEX
  8
0
 10
311.805658
 20
171.802923
 42
0.019303
  0
VERTEX
  8
0
 10
316.974920
 20
171.439897
 42
0.003584
  0
VERTEX
  8
0
 10
326.500000
 20
171.207972
 42
-0.002520
  0
VERTEX
  8
0
 10
333.115660
 20
171.060969
 42
-0.003724
  0
VERTEX
  8
0
 10
338.917440
 20
170.859532
 42
-0.001724
  0
VERTEX
  8
0
 10
343.852846
 20
170.634305
 42
-0.071092
  0
VERTEX
  8
0
 10
344.899797
 20
170.431874
 42
-0.115804
  0
VERTEX
  8
0
 10
345.468398
 20
170.072595
 42
-0.255898
  0
VERTEX
  8
0
 10
345.603800
 20
169.593891
 42
-0.110886
  0
VERTEX
  8
0
 10
345.268650
 20
168.893405
 42
-0.017609
  0
VERTEX
  8
0
 10
344.278889
 20
167.723902
 42
0.023421
  0
VERTEX
  8
0
 10
340.088011
 20
162.653660
 42
0.000940
  0
VERTEX
  8
0
 10
325.776103
 20
143.511997
 42
0.001713
  0
VERTEX
  8
0
 10
311.988061
 20
124.865534
 42
0.007389
  0
VERTEX
  8
0
 10
303.994252
 20
113.632922
 42
-0.001951
  0
VERTEX
  8
0
 10
300.968125
 20
109.281291
 42
-0.002310
  0
VERTEX
  8
0
 10
298.073118
 20
105.192980
 42
-0.002011
  0
VERTEX
  8
0
 10
295.600217
 20
101.763984
 42
-0.014689
  0
VERTEX
  8
0
 10
294.361042
 20
100.161356
 42
0.000000
  0
VERTEX
  8
0
 10
292.222084
 20
97.556868
 42
0.000000
  0
VERTEX
  8
0
 10
284.861042
 20
99.425436
 42
-0.022278
  0
VERTEX
  8
0
 10
273.751248
 20
102.778803
 42
-0.012546
  0
VERTEX
  8
0
 10
260.580642
 20
107.778123
 42
-0.012551
  0
VERTEX
  8
0
 10
247.723448
 20
113.411764
 42
-0.023026
  0
VERTEX
  8
0
 10
237.603638
 20
118.733342
 42
-0.033704
  0
VERTEX
  8
0
 10
230.696203
 20
123.434122
 42
-0.024962
  0
VERTEX
  8
0
 10
223.717868
 20
129.491184
 42
-0.025429
  0
VERTEX
  8
0
 10
217.700647
 20
135.883321
 42
-0.052296
  0
VERTEX
  8
0
 10
213.825377
 20
141.549599
 42
-0.016555
  0
VERTEX
  8
0
 10
212.601822
 20
144.005301
 42
-0.006882
  0
VERTEX
  8
0
 10
211.106470
 20
147.395820
 42
-0.006800
  0
VERTEX
  8
0
 10
209.602828
 20
151.074578
 42
-0.008730
  0
VERTEX
  8
0
 10
208.325377
 20
154.500000
 42
0.000000
  0
VERTEX
  8
0
 10
205.500000
 20
162.500000
 42
0.000000
  0
VERTEX
  8
0
 10
205.000000
 20
226.417114
 42
0.001078
  0
VERTEX
  8
0
 10
204.724191
 20
254.058519
 42
0.002807
  0
VERTEX
  8
0
 10
204.371227
 20
273.945585
 42
0.000442
  0
VERTEX
  8
0
 10
203.981998
 20
289.996462
 42
0.328462
  0
VERTEX
  8
0
 10
203.500000
 20
290.617703
 42
0.122769
  0
VERTEX
  8
0
 10
202.877693
 20
290.637569
 42
0.013329
  0
VERTEX
  8
0
 10
201.471875
 20
290.294945
 42
0.015701
  0
VERTEX
  8
0
 10
199.796396
 20
289.781955
 42
0.012054
  0
SEQEND
  0
ENDSEC
  0
EOF
