<?xml version="1.0" standalone="no"?>
<!DOCTYPE svg PUBLIC "-//W3C//DTD SVG 20010904//EN"
 "http://www.w3.org/TR/2001/REC-SVG-20010904/DTD/svg10.dtd">
<svg version="1.0" xmlns="http://www.w3.org/2000/svg"
 width="350.000000pt" height="350.000000pt" viewBox="0 0 350.000000 350.000000"
 preserveAspectRatio="xMidYMid meet">
<metadata>
Created by potrace 1.14, written by Peter Selinger 2001-2017
</metadata>
<g transform="translate(0.000000,350.000000) scale(0.100000,-0.100000)"
fill="#000000" stroke="none">
<path d="M1725 3490 c-5 -6 -44 -36 -85 -68 -84 -66 -212 -190 -280 -271 -25
-29 -50 -59 -55 -65 -6 -6 -22 -27 -35 -46 -13 -19 -27 -37 -30 -40 -29 -26
-240 -381 -240 -405 0 -5 -6 -21 -13 -35 -39 -77 -113 -341 -132 -474 -2 -12
-8 -57 -14 -101 -7 -44 -14 -98 -18 -120 -3 -22 -7 -107 -9 -190 -1 -82 -3
-157 -3 -167 -1 -9 -16 -32 -33 -50 -82 -86 -248 -266 -272 -295 -36 -43 -73
-129 -86 -201 -7 -42 -9 -197 -4 -494 3 -238 7 -434 8 -435 1 -1 44 19 96 44
279 136 316 156 370 209 30 30 60 54 66 54 5 0 35 -30 65 -66 30 -36 62 -76
72 -88 11 -11 35 -41 55 -65 21 -25 53 -62 73 -83 42 -44 29 -46 181 25 l97
46 -1 183 c-1 202 -1 203 67 283 14 17 23 23 21 15 -4 -14 -11 -87 -22 -240
-3 -36 -7 -76 -9 -89 -2 -13 3 -36 11 -50 18 -29 167 -127 188 -123 25 5 166
104 177 124 9 17 6 161 -6 236 -9 54 -17 152 -12 152 2 0 22 -26 43 -57 l39
-58 1 -188 c1 -104 4 -190 6 -191 19 -16 232 -104 241 -100 7 3 29 26 49 52
21 26 50 61 65 77 16 17 45 51 66 77 21 26 43 53 50 60 7 7 24 27 38 45 l26
31 46 -42 c25 -24 60 -54 78 -67 51 -36 403 -207 409 -198 3 4 7 137 9 296 1
158 4 355 5 437 3 272 -22 325 -284 596 -14 14 -46 49 -71 76 l-46 50 -1 105
c-1 112 -9 282 -16 314 -2 11 -7 47 -11 80 -11 98 -54 292 -91 415 -38 123
-182 424 -253 529 -63 92 -144 185 -270 311 -136 136 -177 172 -244 217 -53
36 -57 37 -72 23z"/>
</g>
</svg>
