<svg width="608" height="278" viewBox="0 0 608 278" fill="none" xmlns="http://www.w3.org/2000/svg">
<path d="M96.3117 85.805C96.3117 114.796 80.357 138.144 53.5065 138.144C40.2758 138.144 29.9636 133.085 23.1537 123.357L23.7374 134.642C23.7374 135.42 22.9591 136.198 22.1809 136.198H1.55655C0.778276 136.198 0 135.42 0 134.642L0.583707 65.1806L0 1.55656C0 0.778278 0.778276 0 1.55655 0H22.1809C22.9591 0 23.7374 0.778278 23.7374 1.55656L23.5429 49.0314C30.5473 39.4975 40.6649 34.0496 53.8956 34.0496C81.719 34.0496 96.3117 56.6196 96.3117 85.805ZM22.57 85.0267C22.3754 108.18 31.3256 121.022 47.0857 121.217C64.2078 121.606 72.3797 108.18 72.3797 86.9724C72.3797 64.2078 64.0132 50.7825 47.6694 50.9771C31.9093 50.9771 22.7646 62.4567 22.57 85.0267Z" fill="#B7B7B7"/>
<path d="M171.052 121.606C164.437 130.945 153.152 138.533 138.17 138.533C117.156 138.533 103.926 124.524 103.926 99.2302V78.6059L103.537 37.5518C103.537 36.7735 104.315 35.9953 105.093 35.9953H125.717C126.496 35.9953 127.274 36.7735 127.274 37.5518L126.885 78.6059V98.6465C126.885 112.85 134.473 120.244 144.98 120.244C156.848 120.244 167.744 110.321 169.69 89.5018V78.6059L169.495 37.5518C169.495 36.7735 170.274 35.9953 171.052 35.9953H191.871C192.649 35.9953 193.427 36.7735 193.427 37.5518L193.038 83.081L193.233 134.642C193.233 135.42 192.455 136.198 191.676 136.198H172.025C171.247 136.198 170.468 135.42 170.468 134.642L171.052 121.606Z" fill="#B7B7B7"/>
<path d="M283.648 120.244V134.642C283.648 135.42 282.87 136.198 282.092 136.198H203.486C202.707 136.198 201.929 135.42 201.929 134.642V120.244C201.929 119.271 202.318 118.103 202.902 117.52L252.323 53.5065H207.572C206.793 53.5065 206.015 52.7282 206.015 51.9499V37.5518C206.015 36.7735 206.793 35.9953 207.572 35.9953H279.368C280.146 35.9953 280.924 36.7735 280.924 37.5518V52.3391C280.924 53.3119 280.535 54.4793 279.951 55.063L229.947 118.687H282.092C282.87 118.687 283.648 119.465 283.648 120.244Z" fill="#B7B7B7"/>
<path d="M371.432 120.244V134.642C371.432 135.42 370.654 136.198 369.876 136.198H291.27C290.492 136.198 289.713 135.42 289.713 134.642V120.244C289.713 119.271 290.102 118.103 290.686 117.52L340.107 53.5065H295.356C294.578 53.5065 293.799 52.7282 293.799 51.9499V37.5518C293.799 36.7735 294.578 35.9953 295.356 35.9953H367.152C367.93 35.9953 368.708 36.7735 368.708 37.5518V52.3391C368.708 53.3119 368.319 54.4793 367.735 55.063L317.731 118.687H369.876C370.654 118.687 371.432 119.465 371.432 120.244Z" fill="#B7B7B7"/>
<path d="M487.429 136.198H462.913C461.94 136.198 461.162 135.615 460.967 134.642L442.483 55.8413L426.14 134.642C425.945 135.615 424.972 136.198 424.194 136.198H399.873C398.9 136.198 398.122 135.615 397.927 134.642L374.19 37.5518C373.995 36.7735 374.579 35.9953 375.357 35.9953H395.981C396.76 35.9953 397.733 36.579 397.927 37.5518L413.104 116.547L429.642 37.5518C429.836 36.579 430.809 35.9953 431.588 35.9953H456.687C457.465 35.9953 458.438 36.579 458.633 37.5518L475.366 114.99L490.542 37.5518C490.737 36.579 491.709 35.9953 492.488 35.9953H510.972C511.75 35.9953 512.334 36.7735 512.139 37.5518L489.375 134.642C489.18 135.615 488.402 136.198 487.429 136.198Z" fill="#B7B7B7"/>
<path d="M534.992 84.8321C534.992 108.18 543.553 121.606 559.897 121.606C575.657 121.606 584.801 109.932 584.996 86.7778C585.191 63.6241 576.24 50.7825 560.48 50.588C543.358 50.3934 534.992 63.4295 534.992 84.8321ZM606.01 136.198H585.58C584.801 136.198 584.023 135.42 584.023 134.642L584.412 122.384C577.602 132.307 567.096 138.144 553.67 138.144C525.847 138.144 511.254 115.574 511.254 86.3887C511.254 57.3979 527.209 34.0496 554.06 34.0496C567.29 34.0496 577.602 39.1084 584.412 48.8368L583.829 37.5518C583.829 36.7735 584.607 35.9953 585.385 35.9953H606.01C606.788 35.9953 607.566 36.7735 607.566 37.5518L606.982 85.805L607.566 134.642C607.566 135.42 606.788 136.198 606.01 136.198Z" fill="#B7B7B7"/>
<path d="M95.3291 238.668C93.3693 261.481 76.1223 278 49.8598 278C18.5016 278 0.470703 257.351 0.470703 225.295C0.470703 193.239 18.5016 172 50.2518 172C75.7303 172 91.8014 186.553 93.9572 208.382C94.1532 209.169 93.3693 209.955 92.5853 209.955H73.9664C73.1824 209.955 72.3985 209.365 72.2025 208.382C69.8506 195.403 61.4231 188.913 50.2518 188.913C32.8088 188.913 24.5773 201.499 24.5773 225.098C24.5773 249.484 33.0048 261.087 50.2518 261.284C62.991 261.481 71.8105 253.221 72.9865 238.668C73.1824 237.685 73.9664 237.095 74.7504 237.095H93.9572C94.7412 237.095 95.5251 237.881 95.3291 238.668Z" fill="#B7B7B7"/>
<path d="M197.598 224.705C197.598 256.957 179.763 278 148.013 278C116.067 278 98.0362 257.351 98.0362 225.295C98.0362 193.239 116.067 172 148.013 172C179.763 172 197.598 192.649 197.598 224.705ZM122.143 225.492C122.143 249.288 130.766 261.284 148.013 261.284C165.064 261.284 173.296 249.484 173.296 225.295C173.296 201.302 164.868 188.716 147.817 188.716C130.374 188.913 122.143 201.499 122.143 225.492Z" fill="#B7B7B7"/>
<path d="M225.847 275.64H205.268C204.484 275.64 203.7 274.853 203.7 274.067L204.288 224.508L203.7 175.933C203.7 175.147 204.484 174.36 205.268 174.36H225.651C226.435 174.36 227.219 175.147 227.219 175.933L226.631 192.059C234.078 179.866 247.406 173.573 261.713 173.573C263.673 173.573 265.436 173.77 267.004 173.967C267.788 174.163 268.572 175.147 268.572 175.933V191.273C268.572 192.059 267.788 192.649 267.004 192.649C265.632 192.453 263.869 192.453 262.301 192.453C243.29 192.453 228.003 203.466 227.219 226.475L227.415 274.067C227.415 274.853 226.631 275.64 225.847 275.64Z" fill="#B7B7B7"/>
<path d="M339.148 241.028H358.747C359.531 241.028 360.315 241.814 360.119 242.601C357.375 262.07 340.716 278 313.67 278C281.135 278 263.692 256.171 263.692 225.295C263.692 193.239 282.311 172 312.886 172C344.244 172 361.883 193.239 362.471 227.852C362.471 228.638 361.687 229.425 360.903 229.425H287.211C288.191 251.057 297.011 261.284 314.062 261.284C326.409 261.284 334.444 255.187 337.188 242.601C337.384 241.618 338.364 241.028 339.148 241.028ZM336.992 213.495C336.012 200.319 328.565 188.519 313.082 188.519C298.97 188.519 290.543 197.173 287.995 213.495H336.992Z" fill="#B7B7B7"/>
</svg>
